<svg width="42" height="42" fill="none" xmlns="http://www.w3.org/2000/svg"><g filter="url(#filter0_b_1_326)"><path d="M41 21c0 11.046-8.954 20-20 20S1 32.046 1 21 9.954 1 21 1s20 8.954 20 20z" fill="url(#paint0_linear_1_326)" fill-opacity=".5"/><path d="M21 41.5c11.322 0 20.5-9.178 20.5-20.5S32.322.5 21 .5.5 9.678.5 21 9.678 41.5 21 41.5z" stroke="url(#paint1_radial_1_326)"/><path d="M21 41.5c11.322 0 20.5-9.178 20.5-20.5S32.322.5 21 .5.5 9.678.5 21 9.678 41.5 21 41.5z" stroke="url(#paint2_radial_1_326)"/><path d="M21 41.5c11.322 0 20.5-9.178 20.5-20.5S32.322.5 21 .5.5 9.678.5 21 9.678 41.5 21 41.5z" stroke="url(#paint3_radial_1_326)"/></g><path d="M30 27H18v-2h12v2zm0-5H12v-2h18v2zm0-5H18v-2h12v2z" fill="#fff"/><defs><radialGradient id="paint1_radial_1_326" cx="0" cy="0" r="1" gradientUnits="userSpaceOnUse" gradientTransform="rotate(-132.581 15.111 5.889) scale(37.7163 29.2587)"><stop stop-color="#fff"/><stop offset="1" stop-color="#fff" stop-opacity="0"/></radialGradient><radialGradient id="paint2_radial_1_326" cx="0" cy="0" r="1" gradientUnits="userSpaceOnUse" gradientTransform="matrix(24.00003 20.62856 -14.81768 17.23944 21 21)"><stop stop-color="#0938DF"/><stop offset="1" stop-color="#0938DF" stop-opacity="0"/></radialGradient><radialGradient id="paint3_radial_1_326" cx="0" cy="0" r="1" gradientUnits="userSpaceOnUse" gradientTransform="matrix(-21.92015 21.19986 -15.83473 -16.37274 21 21)"><stop stop-color="#151515"/><stop offset="1" stop-color="#151515" stop-opacity="0"/></radialGradient><linearGradient id="paint0_linear_1_326" x1="1" y1="1" x2="25.455" y2="48.931" gradientUnits="userSpaceOnUse"><stop stop-color="#fff" stop-opacity=".4"/><stop offset="1" stop-color="#fff" stop-opacity="0"/></linearGradient><filter id="filter0_b_1_326" x="-42" y="-42" width="126" height="126" filterUnits="userSpaceOnUse" color-interpolation-filters="sRGB"><feFlood flood-opacity="0" result="BackgroundImageFix"/><feGaussianBlur in="BackgroundImage" stdDeviation="21"/><feComposite in2="SourceAlpha" operator="in" result="effect1_backgroundBlur_1_326"/><feBlend in="SourceGraphic" in2="effect1_backgroundBlur_1_326" result="shape"/></filter></defs></svg>