<svg width="256" height="23" fill="none" xmlns="http://www.w3.org/2000/svg"><path d="M23.916 5.85l-.105-.995-1.438.152.65 1.292.893-.449zm2.7-.75l-.419-.908-.007.003.426.905zm2.75-15.3l.717-.697-.005-.005-.005-.005-.707.707zM.616-12.95v-1h-1v1h1zm0 35h-1v1h1v-1zm6.25 0v1h1v-1h-1zm0-16.1v-1h-1v1h1zm11.55 3l.895-.447-.02-.038-.022-.036-.853.521zm.15.3l-.894.447.004.008.89-.455zm3.35 6.55l-.89.455.89-.455zm3.2 6.25l-.89.456.279.544h.611v-1zm7 0v1h1.636l-.746-1.456-.89.456zm-3.2-6.25l-.893.449.003.007.89-.456zM6.866-.25h-1V.753L6.869.75l-.003-1zm0-6.45v-1h-1v1h1zm18.1.9l.707-.707-.707.707zm-.95 5.2l-.399-.917-.024.01-.024.013.447.894zm-1.3.3v-1h-.003l.003 1zm1.305 7.145a9.347 9.347 0 003.02-.84l-.85-1.81a7.347 7.347 0 01-2.38.66l.21 1.99zm3.014-.837A10.478 10.478 0 0033.116-3.5h-2a8.478 8.478 0 01-4.919 7.692l.838 1.816zM33.116-3.5c0-2.877-1.164-5.473-3.033-7.397L28.65-9.503c1.53 1.576 2.467 3.68 2.467 6.003h2zm-3.043-7.407a10.37 10.37 0 00-7.357-3.043v2a8.37 8.37 0 015.943 2.457l1.414-1.414zm-7.357-3.043H.616v2h22.1v-2zm-23.1 1v35h2v-35h-2zm1 36h6.25v-2H.616v2zm7.25-1V5.95h-2v16.1h2zm-1-15.1h6.25v-2h-6.25v2zm6.25 0c1.88 0 3.517 1 4.447 2.521l1.706-1.042C18 6.349 15.735 4.95 13.116 4.95v2zm4.406 2.447l.15.3 1.788-.894-.15-.3-1.788.894zm.154.308l3.35 6.55 1.78-.91-3.35-6.55-1.78.91zm3.35 6.55l3.2 6.25 1.78-.91-3.2-6.25-1.78.91zm4.09 6.795h7v-2h-7v2zm7.89-1.456l-3.2-6.25-1.78.912 3.2 6.25 1.78-.912zm-3.197-6.243l-5-9.95-1.787.898 5 9.95 1.788-.898zM7.866-.25V-6.7h-2v6.45h2zm-1-5.45h15.85v-2H6.866v2zm15.85 0c.775 0 1.283.347 1.543.607l1.414-1.414A4.15 4.15 0 0022.716-7.7v2zm1.543.607c.24.241.657.802.657 1.593h2a4.298 4.298 0 00-1.243-3.007L24.26-5.093zm.657 1.593c0 .853-.515 1.642-1.299 1.983l.798 1.834A4.176 4.176 0 0026.916-3.5h-2zm-1.347 2.006a1.917 1.917 0 01-.853.194v2c.595 0 1.2-.132 1.747-.406l-.894-1.788zm-.856.194l-15.85.05.006 2L22.72.7l-.006-2zM53.489-14c-10.202 0-18.5 8.298-18.5 18.5h2c0-9.098 7.403-16.5 16.5-16.5v-2zM34.99 4.5c0 10.202 8.298 18.5 18.5 18.5v-2c-9.097 0-16.5-7.402-16.5-16.5h-2zM53.49 23c10.203 0 18.5-8.298 18.5-18.5h-2c0 9.098-7.402 16.5-16.5 16.5v2zm18.5-18.5c0-10.202-8.297-18.5-18.5-18.5v2c9.098 0 16.5 7.402 16.5 16.5h2zm-18.5 10.25c-5.647 0-10.25-4.602-10.25-10.25h-2c0 6.752 5.498 12.25 12.25 12.25v-2zM43.24 4.5c0-5.648 4.603-10.25 10.25-10.25v-2c-6.752 0-12.25 5.498-12.25 12.25h2zM53.49-5.75c5.648 0 10.25 4.602 10.25 10.25h2c0-6.752-5.497-12.25-12.25-12.25v2zM63.74 4.5c0 5.648-4.602 10.25-10.25 10.25v2c6.753 0 12.25-5.498 12.25-12.25h-2zm37.154 11.25l-.891.454v.002l.891-.456zM86.243-13l.89-.454-.89-1.749-.891 1.749.89.454zm-14.65 28.75l.89.456v-.002l-.89-.454zm-3.2 6.25l-.89-.456L66.757 23h1.636v-1zm7 0v1h.611l.279-.544-.89-.456zm3.2-6.25l.89.456v-.002l-.89-.454zm7.65-15l.89-.454-.89-1.747-.891 1.747.89.454zm7.65 15l-.891.454v.002l.89-.456zm3.2 6.25l-.89.456.278.544h.612v-1zm7 0v1h1.635l-.745-1.456-.89.456zm-2.309-6.704l-14.65-28.75-1.782.908 14.65 28.75 1.782-.908zm-16.432-28.75l-14.65 28.75 1.782.908 14.65-28.75-1.782-.908zm-14.65 28.748l-3.2 6.25 1.78.912 3.2-6.25-1.78-.912zM68.392 23h7v-2h-7v2zm7.89-.544l3.2-6.25-1.78-.912-3.2 6.25 1.78.912zm3.201-6.252l7.65-15-1.781-.908-7.65 15 1.781.908zm5.869-15l7.65 15 1.781-.908-7.65-15-1.781.908zm7.65 15.002l3.2 6.25 1.78-.912-3.2-6.25-1.78.912zM97.093 23h7.001v-2h-7v2zm7.891-1.456l-3.2-6.25-1.781.912 3.2 6.25 1.781-.912zM124.611-13l.707.707L127.026-14h-2.415v1zm-17.5 0v-1h-1v1h1zm0 35h-1v1h1v-1zm29.8-5.15l-.707-.707-.005.005.712.702zm1-1.05l.76.65.001-.001-.761-.649zm-13.35-28.75l-.707-.707-1.707 1.707h2.414v-1zm-11.25 28.75h-1v1h1v-1zm0-22.5v-1h-1v1h1zm11.3-7.3h-17.5v2h17.5v-2zm-18.5 1v35h2v-35h-2zm1 36h17.5v-2h-17.5v2zm17.5 0c5.078 0 9.682-2.064 13.013-5.448l-1.425-1.404A16.186 16.186 0 01124.611 21v2zm13.007-5.443c.344-.344.723-.722 1.053-1.106l-1.519-1.302c-.27.316-.592.638-.948.994l1.414 1.414zm1.054-1.108A18.355 18.355 0 00143.061 4.5h-2c0 4.056-1.461 7.777-3.911 10.651l1.522 1.298zM143.061 4.5c0-10.206-8.301-18.45-18.5-18.45v2c9.102 0 16.5 7.356 16.5 16.45h2zm-17.793-16.743l.05-.05-1.414-1.414-.05.05 1.414 1.414zm-.707 27.043h-11.25v2h11.25v-2zm-10.25 1V-6.7h-2v22.5h2zm-1-21.5h11.25v-2h-11.25v2zm11.25 0c5.648 0 10.25 4.602 10.25 10.25h2c0-6.752-5.497-12.25-12.25-12.25v2zm10.25 10.25c0 5.648-4.602 10.25-10.25 10.25v2c6.753 0 12.25-5.498 12.25-12.25h-2zM175.852-8.2l-.61-.793.61.793zM164.602.45l-.61.793.61.468.609-.468-.609-.793zm-11.25-8.65l.609-.793-.609.793zm-6.25-4.8l.609-.793-1.609-1.236V-13h1zm0 35h-1v1h1v-1zm6.25 0v1h1v-1h-1zm0-22.3l.607-.795-1.607-1.228V-.3h1zm6.15 4.7l.612-.79-.005-.005-.607.795zm5.1 3.95l-.613.79.613.475.612-.474-.612-.791zm5.1-3.95l-.608-.795-.005.004.613.791zm6.15-4.7h1v-2.023l-1.608 1.228.608.795zm0 22.3h-1v1h1v-1zm6.25 0v1h1v-1h-1zm0-35h1v-2.029l-1.61 1.236.61.793zm-6.86 4.007l-11.25 8.65 1.219 1.586 11.25-8.65-1.219-1.586zm-10.031 8.65l-11.25-8.65-1.219 1.586 11.25 8.65 1.219-1.586zm-11.25-8.65l-6.25-4.8-1.219 1.586 6.25 4.8 1.219-1.586zM146.102-13v35h2v-35h-2zm1 36h6.25v-2h-6.25v2zm7.25-1V-.3h-2V22h2zM152.744.495l6.15 4.7 1.215-1.59-6.15-4.7-1.215 1.59zm6.145 4.696l5.1 3.95 1.225-1.582-5.1-3.95-1.225 1.582zm6.325 3.95l5.1-3.95-1.225-1.582-5.1 3.95 1.225 1.582zm5.095-3.946l6.15-4.7-1.215-1.59-6.15 4.7 1.215 1.59zM174.852-.3V22h2V-.3h-2zm1 23.3h6.25v-2h-6.25v2zm7.25-1v-35h-2v35h2zm-1.61-35.793l-6.25 4.8 1.219 1.586 6.25-4.8-1.219-1.586zm36.1 29.543l-.891.454.001.002.89-.456zM202.942-13l.891-.454-.891-1.749-.891 1.749.891.454zm-14.65 28.75l.89.456.001-.002-.891-.454zm-3.2 6.25l-.89-.456-.746 1.456h1.636v-1zm7 0v1h.611l.279-.544-.89-.456zm3.2-6.25l.89.456.001-.002-.891-.454zm7.65-15l.891-.454-.891-1.747-.891 1.747.891.454zm7.65 15l-.891.454.001.002.89-.456zm3.2 6.25l-.89.456.278.544h.612v-1zm7 0v1h1.635l-.745-1.456-.89.456zm-2.309-6.704l-14.65-28.75-1.782.908 14.65 28.75 1.782-.908zm-16.432-28.75l-14.65 28.75 1.782.908 14.65-28.75-1.782-.908zm-14.649 28.748l-3.2 6.25 1.78.912 3.2-6.25-1.78-.912zM185.092 23h7v-2h-7v2zm7.89-.544l3.2-6.25-1.78-.912-3.2 6.25 1.78.912zm3.201-6.252l7.65-15-1.782-.908-7.65 15 1.782.908zm5.868-15l7.65 15 1.782-.908-7.65-15-1.782.908zm7.651 15.002l3.2 6.25 1.78-.912-3.2-6.25-1.78.912zm4.09 6.794h7v-2h-7v2zm7.89-1.456l-3.2-6.25-1.78.912 3.2 6.25 1.78-.912zm30.879-31.794l-.708.707.708-.707zm-28.7-2.75v-1h-1v1h1zm0 35h-1v1h1v-1zm6.25 0v1h1v-1h-1zm0-16.1v-1h-1v1h1zm16.75 0v1h1v-1h-1zm0-.05v-1h-1v1h1zm.3 0v1h.052l.052-.005-.104-.995zm2.7-.75l-.42-.908-.006.003.426.905zm2.75-15.3l.717-.697-.005-.005-.005-.005-.707.707zm-5.35 9.6l.447.894.553-.276V-.6h-1zm-17.15.3h-1v1h1v-1zm0-6.45v-1h-1v1h1zm18.1.9l.707-.707-.707.707zm-.95 5.2l-.399-.917-.601.261v.656h1zm6.007-10.307A10.371 10.371 0 00245.911-14v2a8.37 8.37 0 015.942 2.457l1.415-1.414zM245.911-14h-22.05v2h22.05v-2zm-23.05 1v35h2v-35h-2zm1 36h6.25v-2h-6.25v2zm7.25-1V5.9h-2V22h2zm-1-15.1h16.75v-2h-16.75v2zm17.75-1v-.05h-2v.05h2zm-1 .95h.3v-2h-.3v2zm.404-.005a9.342 9.342 0 003.021-.84l-.851-1.81a7.352 7.352 0 01-2.379.66l.209 1.99zm3.015-.837a10.48 10.48 0 006.081-9.508h-2a8.478 8.478 0 01-4.92 7.692l.839 1.816zm6.081-9.508c0-2.877-1.164-5.473-3.033-7.397l-1.435 1.394c1.531 1.576 2.468 3.68 2.468 6.003h2zm-3.043-7.407l-.05-.05-1.415 1.414.05.05 1.415-1.414zm-6.505 9.413a1.915 1.915 0 01-.852.194v2c.595 0 1.199-.132 1.747-.406l-.895-1.788zm-.852.194h-15.85v2h15.85v-2zm-14.85 1v-6.45h-2V-.3h2zm-1-5.45h15.85v-2h-15.85v2zm15.85 0c.774 0 1.283.347 1.542.607l1.415-1.414a4.15 4.15 0 00-2.957-1.193v2zm1.542.607a2.3 2.3 0 01.658 1.593h2a4.298 4.298 0 00-1.243-3.007l-1.415 1.414zm.658 1.593c0 .853-.516 1.642-1.299 1.983l.797 1.834a4.176 4.176 0 002.502-3.817h-2zm-1.9 2.9v.05h2v-.05h-2z" fill="url(#a)"/><defs><linearGradient id="a" x1="-407" y1="-15" x2="663" y2="-15" gradientUnits="userSpaceOnUse"><stop stop-color="#7F5CFF" stop-opacity="0"/><stop offset=".495" stop-color="#7F5CFF"/><stop offset="1" stop-color="#7F5CFF" stop-opacity="0"/></linearGradient></defs></svg>