<svg width="234" height="11" fill="none" xmlns="http://www.w3.org/2000/svg"><path d="M.867-7.475v-.5h-.5v.5h.5zm0 3.125h-.5v.5h.5v-.5zm7.175 0h.5v-.5h-.5v.5zm0 14.375h-.5v.5h.5v-.5zm3.125 0v.5h.5v-.5h-.5zm0-14.375v-.5h-.5v.5h.5zm7.175 0v.5h.5v-.5h-.5zm0-3.125h.5v-.5h-.5v.5zm-17.975 0v3.125h1v-3.125h-1zm.5 3.625h7.175v-1H.867v1zm6.675-.5v14.375h1V-4.35h-1zm.5 14.875h3.125v-1H8.042v1zm3.625-.5V-4.35h-1v14.375h1zm-.5-13.875h7.175v-1h-7.175v1zm7.675-.5v-3.125h-1v3.125h1zm-.5-3.625H.867v1h17.475v-1zm16.895.475V-8h-.5v.5h.5zm0 6.35v.5h.5v-.5h-.5zm-11.25 0h-.5v.5h.5v-.5zm0-6.35h.5V-8h-.5v.5zm-3.125 0V-8h-.5v.5h.5zm0 17.5h-.5v.5h.5V10zm3.125 0v.5h.5V10h-.5zm0-8.025v-.5h-.5v.5h.5zm11.25 0h.5v-.5h-.5v.5zm0 8.025h-.5v.5h.5V10zm3.125 0v.5h.5V10h-.5zm0-17.5h.5V-8h-.5v.5zm-3.625 0v6.35h1V-7.5h-1zm.5 5.85h-11.25v1h11.25v-1zm-10.75.5V-7.5h-1v6.35h1zm-.5-6.85h-3.125v1h3.125v-1zm-3.625.5V10h1V-7.5h-1zm.5 18h3.125v-1h-3.125v1zm3.625-.5V1.975h-1V10h1zm-.5-7.525h11.25v-1h-11.25v1zm10.75-.5V10h1V1.975h-1zm.5 8.525h3.125v-1h-3.125v1zm3.625-.5V-7.5h-1V10h1zm-.5-18h-3.125v1h3.125v-1zm19.995 3.625v.5h.5v-.5h-.5zm0-3.125h.5V-8h-.5v.5zm0 17.5v.5h.5V10h-.5zm0-3.125h.5v-.5h-.5v.5zm-14.375-4.9v-.5h-.5v.5h.5zm11.25 0v.5h.5v-.5h-.5zm0-3.125h.5v-.5h-.5v.5zm-11.25 0h-.5v.5h.5v-.5zm1.6-2.725h12.775v-1H45.582v1zm13.275-.5V-7.5h-1v3.125h1zM58.357-8H45.582v1h12.775v-1zM45.582-8c-2.88 0-5.2 2.352-5.2 5.225h1c0-2.327 1.88-4.225 4.2-4.225v-1zm-5.2 5.225v8.05h1v-8.05h-1zm0 8.05c0 2.873 2.32 5.225 5.2 5.225v-1c-2.32 0-4.2-1.898-4.2-4.225h-1zm5.2 5.225h12.775v-1H45.582v1zm13.275-.5V6.875h-1V10h1zm-.5-3.625H45.582v1h12.775v-1zm-12.775 0c-.598 0-1.1-.501-1.1-1.1h-1c0 1.151.95 2.1 2.1 2.1v-1zm-1.1-1.1v-3.3h-1v3.3h1zm-.5-2.8h11.25v-1h-11.25v1zm11.75-.5V-1.15h-1v3.125h1zm-.5-3.625h-11.25v1h11.25v-1zm-10.75.5v-1.625h-1v1.625h1zm0-1.625c0-.599.502-1.1 1.1-1.1v-1c-1.15 0-2.1.949-2.1 2.1h1zM87.41-5.1l-.304-.397.304.397zM81.785-.775l-.305.396.305.235.305-.235-.305-.396zM76.16-5.1l.305-.396-.305.396zm-3.125-2.4l.305-.397-.805-.617V-7.5h.5zm0 17.5h-.5v.5h.5V10zm3.125 0v.5h.5V10h-.5zm0-11.15l.304-.397-.804-.614v1.011h.5zm3.075 2.35l.306-.395-.002-.002-.304.397zm2.55 1.975l-.306.395.306.237.306-.237-.306-.395zm2.55-1.975l-.303-.397-.003.002.306.395zm3.075-2.35h.5v-1.011l-.803.614.303.397zm0 11.15h-.5v.5h.5V10zm3.125 0v.5h.5V10h-.5zm0-17.5h.5v-1.014l-.804.617.304.397zm-3.43 2.004L81.48-1.171l.61.792 5.625-4.325-.61-.792zM82.09-1.171l-5.625-4.325-.61.792L81.48-.379l.61-.792zm-5.625-4.326l-3.125-2.4-.61.794 3.126 2.4.609-.794zM72.535-7.5V10h1V-7.5h-1zm.5 18h3.125v-1h-3.125v1zm3.625-.5V-1.15h-1V10h1zM75.857-.753l3.075 2.35.607-.794-3.075-2.35-.607.794zm3.072 2.348l2.55 1.975.612-.79-2.55-1.975-.612.79zm3.162 1.975l2.55-1.975-.612-.79-2.55 1.975.612.79zm2.548-1.973l3.075-2.35-.607-.794-3.075 2.35.607.794zM86.91-1.15V10h1V-1.15h-1zm.5 11.65h3.125v-1H87.41v1zm3.625-.5V-7.5h-1V10h1zm-.804-17.897l-3.125 2.4.609.794 3.125-2.4-.61-.794zm20.299 3.522v.5h.5v-.5h-.5zm0-3.125h.5V-8h-.5v.5zm0 17.5v.5h.5V10h-.5zm0-3.125h.5v-.5h-.5v.5zm-14.375-4.9v-.5h-.5v.5h.5zm11.25 0v.5h.5v-.5h-.5zm0-3.125h.5v-.5h-.5v.5zm-11.25 0h-.5v.5h.5v-.5zm1.6-2.725h12.775v-1H97.755v1zm13.275-.5V-7.5h-1v3.125h1zM110.53-8H97.755v1h12.775v-1zM97.755-8c-2.88 0-5.2 2.352-5.2 5.225h1c0-2.327 1.88-4.225 4.2-4.225v-1zm-5.2 5.225v8.05h1v-8.05h-1zm0 8.05c0 2.873 2.32 5.225 5.2 5.225v-1c-2.32 0-4.2-1.898-4.2-4.225h-1zm5.2 5.225h12.775v-1H97.755v1zm13.275-.5V6.875h-1V10h1zm-.5-3.625H97.755v1h12.775v-1zm-12.775 0c-.599 0-1.1-.501-1.1-1.1h-1c0 1.151.95 2.1 2.1 2.1v-1zm-1.1-1.1v-3.3h-1v3.3h1zm-.5-2.8h11.25v-1h-11.25v1zm11.75-.5V-1.15h-1v3.125h1zm-.5-3.625h-11.25v1h11.25v-1zm-10.75.5v-1.625h-1v1.625h1zm0-1.625c0-.599.501-1.1 1.1-1.1v-1c-1.15 0-2.1.949-2.1 2.1h1zm16.37-4.7v-.5h-.5v.5h.5zm0 3.125h-.5v.5h.5v-.5zm7.175 0h.5v-.5h-.5v.5zm0 14.375h-.5v.5h.5v-.5zm3.125 0v.5h.5v-.5h-.5zm0-14.375v-.5h-.5v.5h.5zm7.175 0v.5h.5v-.5h-.5zm0-3.125h.5v-.5h-.5v.5zm-17.975 0v3.125h1v-3.125h-1zm.5 3.625h7.175v-1h-7.175v1zm6.675-.5v14.375h1V-4.35h-1zm.5 14.875h3.125v-1H120.2v1zm3.625-.5V-4.35h-1v14.375h1zm-.5-13.875h7.175v-1h-7.175v1zm7.675-.5v-3.125h-1v3.125h1zm-.5-3.625h-17.475v1H130.5v-1zm12.814 14.85l-.445.227.445-.227zM135.989-7.5l.446-.227-.446-.874-.445.874.445.227zm-7.325 14.375l.446.228v-.001l-.446-.227zm-1.6 3.125l-.445-.228-.372.728h.817V10zm3.5 0v.5h.306l.14-.272-.446-.228zm1.6-3.125l.446.228-.446-.228zm3.825-7.5l.446-.227-.446-.874-.445.874.445.227zm3.825 7.5l-.445.227.445-.227zm1.6 3.125l-.445.228.14.272h.305V10zm3.5 0v.5h.818l-.372-.728-.446.228zm-1.154-3.352l-7.325-14.375-.891.454 7.325 14.375.891-.454zm-8.216-14.375l-7.325 14.375.891.454 7.325-14.375-.891-.454zm-7.325 14.374l-1.6 3.125.891.456 1.6-3.125-.891-.456zm-1.155 3.853h3.5v-1h-3.5v1zm3.946-.272l1.6-3.125-.891-.456-1.6 3.125.891.456zm1.6-3.126l3.825-7.5-.891-.454-3.825 7.5.891.454zm2.934-7.5l3.825 7.5.891-.454-3.825-7.5-.891.454zm3.825 7.5l1.6 3.126.891-.456-1.6-3.125-.891.456zm2.045 3.398h3.5v-1h-3.5v1zm3.946-.728l-1.6-3.125-.891.456 1.6 3.125.891-.456zM154.402-7.5V-8h-.306l-.139.272.445.228zm-1.6 3.125l-.445-.228.445.228zm-3.825 7.5l-.445.227.445.874.446-.874-.446-.227zm-3.825-7.5l.446-.227h-.001l-.445.227zm-1.6-3.125l.445-.228-.139-.272h-.306v.5zm-3.5 0V-8h-.818l.373.728.445-.228zm1.6 3.125l.446-.227h-.001l-.445.227zM148.977 10l-.445.227.445.874.446-.874-.446-.227zm7.325-14.375l-.445-.228v.001l.445.227zm1.6-3.125l.445.228.373-.728h-.818v.5zm-3.945-.228l-1.6 3.125.89.456 1.6-3.125-.89-.456zm-1.6 3.126l-3.825 7.5.891.454 3.825-7.5-.891-.454zm-2.934 7.5l-3.825-7.5-.891.454 3.825 7.5.891-.454zm-3.826-7.5l-1.6-3.126-.89.456 1.6 3.125.89-.456zM143.552-8h-3.5v1h3.5v-1zm-3.945.728l1.6 3.125.89-.456-1.6-3.125-.89.456zm1.6 3.124l7.325 14.375.891-.454-7.325-14.375-.891.454zm8.216 14.375l7.325-14.375-.891-.454-7.325 14.375.891.454zm7.324-14.374l1.6-3.125-.89-.456-1.6 3.125.89.456zM157.902-8h-3.5v1h3.5v-1zm17.936 3.625v.5h.5v-.5h-.5zm0-3.125h.5V-8h-.5v.5zm0 17.5v.5h.5V10h-.5zm0-3.125h.5v-.5h-.5v.5zm-14.375-4.9v-.5h-.5v.5h.5zm11.25 0v.5h.5v-.5h-.5zm0-3.125h.5v-.5h-.5v.5zm-11.25 0h-.5v.5h.5v-.5zm1.6-2.725h12.775v-1h-12.775v1zm13.275-.5V-7.5h-1v3.125h1zm-.5-3.625h-12.775v1h12.775v-1zm-12.775 0c-2.88 0-5.2 2.352-5.2 5.225h1c0-2.327 1.879-4.225 4.2-4.225v-1zm-5.2 5.225v8.05h1v-8.05h-1zm0 8.05c0 2.873 2.32 5.225 5.2 5.225v-1c-2.321 0-4.2-1.898-4.2-4.225h-1zm5.2 5.225h12.775v-1h-12.775v1zm13.275-.5V6.875h-1V10h1zm-.5-3.625h-12.775v1h12.775v-1zm-12.775 0c-.599 0-1.1-.501-1.1-1.1h-1c0 1.151.949 2.1 2.1 2.1v-1zm-1.1-1.1v-3.3h-1v3.3h1zm-.5-2.8h11.25v-1h-11.25v1zm11.75-.5V-1.15h-1v3.125h1zm-.5-3.625h-11.25v1h11.25v-1zm-10.75.5v-1.625h-1v1.625h1zm0-1.625c0-.599.501-1.1 1.1-1.1v-1c-1.151 0-2.1.949-2.1 2.1h1zm27.995 4.7l-.052-.497-.718.075.323.646.447-.224zm1.35-.375l-.21-.454-.003.002.213.452zm1.375-7.625l-.354.354.354-.354zM178.308-7.45v-.5h-.5v.5h.5zm0 17.5h-.5v.5h.5v-.5zm3.125 0v.5h.5v-.5h-.5zm0-8.05v-.5h-.5V2h.5zm5.775 1.5l.447-.224-.009-.019-.011-.018-.427.261zm.075.15l-.447.224.002.004.445-.228zm1.675 3.275l-.445.228.445-.228zm1.6 3.125l-.445.228.139.272h.306v-.5zm3.5 0v.5h.818l-.373-.728-.445.228zm-1.6-3.125l-.447.224.002.004.445-.228zM181.433-1.1h-.5v.502l.502-.002-.002-.5zm0-3.225v-.5h-.5v.5h.5zm9.05.45l-.354.354.354-.354zm-.475 2.6l-.199-.459-.013.006-.012.006.224.447zm-.65.15v-.5h-.002l.002.5zm.652 3.547a4.677 4.677 0 001.511-.42l-.426-.904a3.67 3.67 0 01-1.189.33l.104.994zm1.508-.418a5.24 5.24 0 003.04-4.754h-1a4.24 4.24 0 01-2.46 3.846l.42.908zm3.04-4.754a5.186 5.186 0 00-1.521-3.679l-.708.708a4.185 4.185 0 011.229 2.971h1zm-1.521-3.679a5.187 5.187 0 00-3.679-1.521v1c1.163 0 2.212.469 2.971 1.229l.708-.708zm-3.679-1.521h-11.05v1h11.05v-1zm-11.55.5v17.5h1v-17.5h-1zm.5 18h3.125v-1h-3.125v1zm3.625-.5V2h-1v8.05h1zm-.5-7.55h3.125v-1h-3.125v1zm3.125 0c.94 0 1.759.5 2.223 1.26l.854-.52a3.599 3.599 0 00-3.077-1.74v1zm2.203 1.224l.075.15.894-.448-.075-.15-.894.448zm.077.154l1.675 3.275.89-.456-1.675-3.275-.89.456zm1.675 3.275l1.6 3.125.89-.456-1.6-3.125-.89.456zm2.045 3.397h3.5v-1h-3.5v1zm3.945-.728l-1.6-3.125-.89.456 1.6 3.125.89-.456zm-1.598-3.12l-2.5-5-.894.447 2.5 5 .894-.448zM181.933-1.1v-3.225h-1V-1.1h1zm-.5-2.725h7.925v-1h-7.925v1zm7.925 0c.387 0 .642.174.771.304l.708-.708a2.077 2.077 0 00-1.479-.596v1zm.771.304c.121.12.329.4.329.796h1c0-.754-.392-1.274-.621-1.504l-.708.708zm.329.796c0 .427-.258.821-.649.991l.398.918a2.087 2.087 0 001.251-1.909h-1zm-.674 1.003a.957.957 0 01-.426.097v1c.298 0 .6-.066.874-.203l-.448-.894zm-.428.097l-7.925.025.004 1 7.925-.025-.004-1zm23.789-1.05l.004.5.496-.004v-.496h-.5zM197.445 0l.422-.268-.006-.01-.007-.009-.409.287zm.6.75l-.354.354.005.005.349-.359zm1.7 3.725h.5v-.5h-.5v.5zm-3.125 0v-.5h-.5v.5h.5zm15.275-3.5l.387-.316-.016-.02-.018-.018-.353.354zm-.2-.225l-.37.336.008.01.008.008.354-.354zm-1.675-3.4h-.5v.504l.504-.004-.004-.5zm3.625-.025v-.1h-1v.1h1zm0-.1A5.237 5.237 0 00208.42-8v1a4.237 4.237 0 014.225 4.225h1zM208.42-8h-7.1v1h7.1v-1zm-7.1 0c-2.88 0-5.2 2.352-5.2 5.225h1c0-2.327 1.879-4.225 4.2-4.225v-1zm-5.2 5.225v.1h1v-.1h-1zm0 .1c0 1.1.33 2.126.915 2.962l.819-.574a4.147 4.147 0 01-.734-2.388h-1zm.903 2.943c.194.305.417.584.668.836l.707-.708a3.87 3.87 0 01-.531-.664l-.844.536zm.673.84a5.176 5.176 0 003.624 1.467v-1a4.174 4.174 0 01-2.927-1.184l-.697.718zm3.624 1.467h6.3v-1h-6.3v1zm6.3 0c1.055 0 1.925.858 1.925 1.9h1c0-1.608-1.331-2.9-2.925-2.9v1zm1.925 1.9c0 1.042-.87 1.9-1.925 1.9v1c1.594 0 2.925-1.292 2.925-2.9h-1zm-1.925 1.9h-5.475v1h5.475v-1zm-5.475 0a1.9 1.9 0 01-1.9-1.9h-1a2.9 2.9 0 002.9 2.9v-1zm-2.4-2.4h-3.125v1h3.125v-1zm-3.625.5a6.027 6.027 0 006.025 6.025v-1a5.027 5.027 0 01-5.025-5.025h-1zm6.025 6.025h5.475v-1h-5.475v1zm5.475 0a6.027 6.027 0 006.025-6.025h-1A5.027 5.027 0 01207.62 9.5v1zm6.025-6.025a6.04 6.04 0 00-1.363-3.816l-.775.632a5.037 5.037 0 011.138 3.184h1zM212.248.621c-.019-.019-.036-.04-.069-.079-.03-.035-.075-.09-.131-.146l-.707.708c.019.019.037.04.07.079.029.035.074.09.13.146l.707-.708zm-.183-.207a5.99 5.99 0 00-4.445-1.964v1a4.99 4.99 0 013.705 1.636l.74-.672zM207.62-1.55h-6.3v1h6.3v-1zm-6.3 0c-.599 0-1.1-.501-1.1-1.1h-1c0 1.151.949 2.1 2.1 2.1v-1zm-1.1-1.1v-.1h-1v.1h1zm0-.1c0-.599.501-1.1 1.1-1.1v-1c-1.151 0-2.1.949-2.1 2.1h1zm1.1-1.1h7.1v-1h-7.1v1zm7.1 0c.599 0 1.1.501 1.1 1.1h1c0-1.151-.949-2.1-2.1-2.1v1zm1.1 1.1v.1h1v-.1h-1zm.504.6l3.125-.025-.008-1-3.125.025.008 1zm23.114-2.225v.5h.5v-.5h-.5zm0-3.125h.5V-8h-.5v.5zm0 17.5v.5h.5V10h-.5zm0-3.125h.5v-.5h-.5v.5zm-14.375-4.9v-.5h-.5v.5h.5zm11.25 0v.5h.5v-.5h-.5zm0-3.125h.5v-.5h-.5v.5zm-11.25 0h-.5v.5h.5v-.5zm1.6-2.725h12.775v-1h-12.775v1zm13.275-.5V-7.5h-1v3.125h1zm-.5-3.625h-12.775v1h12.775v-1zm-12.775 0c-2.88 0-5.2 2.352-5.2 5.225h1c0-2.327 1.879-4.225 4.2-4.225v-1zm-5.2 5.225v8.05h1v-8.05h-1zm0 8.05c0 2.873 2.32 5.225 5.2 5.225v-1c-2.321 0-4.2-1.898-4.2-4.225h-1zm5.2 5.225h12.775v-1h-12.775v1zm13.275-.5V6.875h-1V10h1zm-.5-3.625h-12.775v1h12.775v-1zm-12.775 0c-.599 0-1.1-.501-1.1-1.1h-1c0 1.151.949 2.1 2.1 2.1v-1zm-1.1-1.1v-3.3h-1v3.3h1zm-.5-2.8h11.25v-1h-11.25v1zm11.75-.5V-1.15h-1v3.125h1zm-.5-3.625h-11.25v1h11.25v-1zm-10.75.5v-1.625h-1v1.625h1zm0-1.625c0-.599.501-1.1 1.1-1.1v-1c-1.151 0-2.1.949-2.1 2.1h1z" fill="url(#a)"/><defs><linearGradient id="a" x1="-23" y1="-9" x2="257" y2="-9" gradientUnits="userSpaceOnUse"><stop stop-color="#7F5CFF" stop-opacity="0"/><stop offset=".495" stop-color="#7F5CFF"/><stop offset="1" stop-color="#7F5CFF" stop-opacity="0"/></linearGradient></defs></svg>