<svg width="979" height="23" fill="none" xmlns="http://www.w3.org/2000/svg"><path d="M18.003-14C7.8-14-.497-5.702-.497 4.5h2c0-9.098 7.402-16.5 16.5-16.5v-2zM-.497 4.5c0 10.202 8.298 18.5 18.5 18.5v-2c-9.098 0-16.5-7.402-16.5-16.5h-2zm18.5 18.5c10.202 0 18.5-8.298 18.5-18.5h-2c0 9.098-7.402 16.5-16.5 16.5v2zm18.5-18.5c0-10.202-8.298-18.5-18.5-18.5v2c9.098 0 16.5 7.402 16.5 16.5h2zm-18.5 10.25c-5.648 0-10.25-4.602-10.25-10.25h-2c0 6.752 5.498 12.25 12.25 12.25v-2zM7.753 4.5c0-5.648 4.602-10.25 10.25-10.25v-2c-6.752 0-12.25 5.498-12.25 12.25h2zm10.25-10.25c5.648 0 10.25 4.602 10.25 10.25h2c0-6.752-5.498-12.25-12.25-12.25v2zM28.253 4.5c0 5.648-4.602 10.25-10.25 10.25v2c6.752 0 12.25-5.498 12.25-12.25h-2zM68.003-13v-1h-1v1h1zm-22.5 0h1v-1h-1v1zm-6.25 0v-1h-1v1h1zm35 0h1v-1h-1v1zm-7.25 0V4.5h2V-13h-2zm0 17.5c0 5.648-4.602 10.25-10.25 10.25v2c6.752 0 12.25-5.498 12.25-12.25h-2zm-10.25 10.25c-5.648 0-10.25-4.602-10.25-10.25h-2c0 6.752 5.498 12.25 12.25 12.25v-2zM46.503 4.5V-13h-2V4.5h2zm-1-18.5h-6.25v2h6.25v-2zm-7.25 1V4.5h2V-13h-2zm0 17.5c0 10.202 8.298 18.5 18.5 18.5v-2c-9.098 0-16.5-7.402-16.5-16.5h-2zm18.5 18.5c10.202 0 18.5-8.298 18.5-18.5h-2c0 9.098-7.402 16.5-16.5 16.5v2zm18.5-18.5V-13h-2V4.5h2zm-1-18.5h-6.25v2h6.25v-2zm28.24 19.85l-.105-.995-1.435.152.646 1.29.894-.447zm2.7-.75l-.419-.908-.007.003.426.905zm2.75-15.25l-.707.707.707-.707zm-28.75-2.75v-1h-1v1h1zm0 35h-1v1h1v-1zm6.25 0v1h1v-1h-1zm0-16.1V5h-1v1h1zm11.55 3l.895-.447-.02-.038-.021-.036-.854.521zm.15.3l-.894.447.004.008.89-.455zm3.35 6.55l-.89.455.89-.455zm3.2 6.25l-.89.456.279.544h.611v-1zm7 0v1h1.636l-.746-1.456-.89.456zm-3.2-6.25l-.894.447.004.009.89-.456zM85.443-.2h-1V.803L85.446.8l-.003-1zm0-6.45v-1h-1v1h1zm18.1.9l-.707.707.707-.707zm-.95 5.2l-.399-.917-.024.01-.024.013.447.894zm-1.3.3v-1h-.003l.003 1zm1.305 7.095a9.35 9.35 0 003.021-.84l-.852-1.81a7.345 7.345 0 01-2.379.66l.21 1.99zm3.014-.837a10.478 10.478 0 006.081-9.508h-2a8.478 8.478 0 01-4.919 7.692l.838 1.816zm6.081-9.508c0-2.875-1.162-5.477-3.043-7.357l-1.414 1.414a8.368 8.368 0 012.457 5.943h2zm-3.043-7.357a10.37 10.37 0 00-7.357-3.043v2a8.37 8.37 0 015.943 2.457l1.414-1.414zm-7.357-3.043h-22.1v2h22.1v-2zm-23.1 1v35h2v-35h-2zm1 36h6.25v-2h-6.25v2zm7.25-1V6h-2v16.1h2zm-1-15.1h6.25V5h-6.25v2zm6.25 0c1.88 0 3.517 1 4.447 2.521l1.707-1.042C96.576 6.399 94.313 5 91.693 5v2zM96.1 9.447l.15.3 1.789-.894-.15-.3-1.79.894zm.154.308l3.35 6.55 1.78-.91-3.35-6.55-1.78.91zm3.35 6.55l3.2 6.25 1.78-.91-3.2-6.25-1.78.91zm4.09 6.795h7v-2h-7v2zm7.89-1.456l-3.2-6.25-1.78.912 3.2 6.25 1.78-.912zm-3.195-6.241l-5-10-1.789.894 5 10 1.789-.894zM86.443-.2v-6.45h-2V-.2h2zm-1-5.45h15.85v-2h-15.85v2zm15.85 0c.775 0 1.283.347 1.543.607l1.414-1.414a4.149 4.149 0 00-2.957-1.193v2zm1.543.607a2.3 2.3 0 01.657 1.593h2a4.298 4.298 0 00-1.243-3.007l-1.414 1.414zm.657 1.593c0 .853-.515 1.642-1.299 1.983l.798 1.834a4.176 4.176 0 002.501-3.817h-2zm-1.347 2.006a1.919 1.919 0 01-.853.194v2c.596 0 1.2-.132 1.747-.406l-.894-1.788zm-.856.194l-15.85.05.006 2 15.85-.05-.006-2zm71.942-2.1l.008 1 .992-.008v-.992h-1zM141.832 2l.843-.537-.011-.018-.013-.018-.819.573zm1.2 1.5l-.707.707.005.005.005.006.697-.718zm3.4 7.45h1v-1h-1v1zm-6.25 0v-1h-1v1h1zm30.55-7l.775-.632-.032-.04-.036-.035-.707.707zm-.4-.45l-.74.673.016.017.017.017.707-.707zm-3.35-6.8h-1v1.008l1.008-.008-.008-1zm7.25-.05v-.2h-2v.2h2zm0-.2c0-5.752-4.698-10.45-10.45-10.45v2c4.648 0 8.45 3.802 8.45 8.45h2zM163.782-14h-14.2v2h14.2v-2zm-14.2 0c-5.759 0-10.4 4.705-10.4 10.45h2c0-4.655 3.759-8.45 8.4-8.45v-2zm-10.4 10.45v.2h2v-.2h-2zm0 .2c0 2.202.661 4.253 1.831 5.923l1.638-1.146c-.93-1.33-1.469-2.979-1.469-4.777h-2zm1.806 5.887c.388.61.834 1.167 1.337 1.67l1.414-1.414a7.798 7.798 0 01-1.064-1.33l-1.687 1.074zm1.347 1.68a10.349 10.349 0 007.247 2.933v-2a8.348 8.348 0 01-5.854-2.368l-1.393 1.436zm7.247 2.933h12.6v-2h-12.6v2zm12.6 0c2.111 0 3.85 1.716 3.85 3.8h2c0-3.216-2.661-5.8-5.85-5.8v2zm3.85 3.8c0 2.084-1.739 3.8-3.85 3.8v2c3.189 0 5.85-2.584 5.85-5.8h-2zm-3.85 3.8h-10.95v2h10.95v-2zm-10.95 0a3.801 3.801 0 01-3.8-3.8h-2c0 3.202 2.598 5.8 5.8 5.8v-2zm-4.8-4.8h-6.25v2h6.25v-2zm-7.25 1c0 6.652 5.398 12.05 12.05 12.05v-2c-5.548 0-10.05-4.502-10.05-10.05h-2zM151.232 23h10.95v-2h-10.95v2zm10.95 0c6.652 0 12.05-5.398 12.05-12.05h-2c0 5.548-4.502 10.05-10.05 10.05v2zm12.05-12.05c0-2.891-1.037-5.562-2.725-7.632l-1.55 1.264a10.078 10.078 0 012.275 6.368h2zm-2.793-7.707a2.545 2.545 0 01-.139-.158 3.917 3.917 0 00-.261-.292l-1.414 1.414c.038.038.073.08.139.158.059.072.149.18.261.292l1.414-1.414zm-.367-.416a11.978 11.978 0 00-8.89-3.927v2a9.979 9.979 0 017.41 3.273l1.48-1.346zm-8.89-3.927h-12.6v2h12.6v-2zm-12.6 0a2.222 2.222 0 01-2.2-2.2h-2c0 2.302 1.898 4.2 4.2 4.2v-2zm-2.2-2.2v-.2h-2v.2h2zm0-.2c0-1.198 1.002-2.2 2.2-2.2v-2c-2.302 0-4.2 1.898-4.2 4.2h2zm2.2-2.2h14.2v-2h-14.2v2zm14.2 0c1.198 0 2.2 1.002 2.2 2.2h2c0-2.302-1.898-4.2-4.2-4.2v2zm2.2 2.2v.2h2v-.2h-2zm1.008 1.2l6.25-.05-.016-2-6.25.05.016 2zm38.993 18.05l-.891.454.001.002.89-.456zM191.333-13l.891-.454-.891-1.749-.891 1.749.891.454zm-14.65 28.75l.891.456v-.002l-.891-.454zm-3.2 6.25l-.89-.456-.745 1.456h1.635v-1zm7 0v1h.612l.279-.544-.891-.456zm3.2-6.25l.891.456v-.002l-.891-.454zm7.65-15l.891-.454-.891-1.747-.89 1.747.89.454zm7.65 15l-.89.454v.002l.89-.456zm3.2 6.25l-.89.456.279.544h.611v-1zm7 0v1h1.636l-.745-1.456-.891.456zm-2.309-6.704l-14.65-28.75-1.782.908 14.65 28.75 1.782-.908zm-16.432-28.75l-14.65 28.75 1.782.908 14.65-28.75-1.782-.908zm-14.649 28.748l-3.2 6.25 1.781.912 3.2-6.25-1.781-.912zM173.483 23h7v-2h-7v2zm7.891-.544l3.2-6.25-1.781-.912-3.2 6.25 1.781.912zm3.2-6.252l7.65-15-1.781-.908-7.65 15 1.781.908zm5.869-15l7.65 15 1.781-.908-7.65-15-1.781.908zm7.65 15.002l3.2 6.25 1.781-.912-3.2-6.25-1.781.912zm4.09 6.794h7v-2h-7v2zm7.891-1.456l-3.2-6.25-1.781.912 3.2 6.25 1.781-.912zm11.31-5.794l-.135.99.066.01h.066l.003-1zm-4.25-4.25h-1v.068l.009.067.991-.135zm0-24.45h1v-1h-1v1zm-6.25 0v-1h-1v1h1zm1.15 28.75l.902-.43-.004-.009-.004-.008-.894.447zm5.05 5.1l-.447.894.447-.894zm22.65 1.15v1h1v-1h-1zm0-6.25h1v-.997l-.997-.003-.003 1zm-18.215-1.04a3.985 3.985 0 01-3.394-3.395l-1.982.27a5.986 5.986 0 005.106 5.106l.27-1.982zm-3.385-3.26v-24.45h-2V11.5h2zm-1-25.45h-6.25v2h6.25v-2zm-7.25 1V10.9h2v-23.85h-2zm0 23.85c0 1.906.436 3.709 1.255 5.347l1.789-.894a9.87 9.87 0 01-1.044-4.453h-2zm1.247 5.33c1.15 2.409 3.113 4.368 5.506 5.564l.894-1.788c-2.008-1.004-3.644-2.645-4.595-4.637l-1.805.862zm5.506 5.564a11.87 11.87 0 005.347 1.256v-2a9.874 9.874 0 01-4.453-1.044l-.894 1.788zm5.347 1.256h17.75v-2h-17.75v2zm18.75-1V15.8h-2v6.25h2zm-.997-7.25l-18.35-.05-.006 2 18.35.05.006-2zM260.678-13v-1h-.611l-.279.544.89.456zm-3.2 6.25l-.89-.456-.001.002.891.454zm-7.65 15l-.89.454.89 1.747.891-1.747-.891-.454zm-7.65-15l.891-.454-.001-.002-.89.456zm-3.2-6.25l.89-.456-.278-.544h-.612v1zm-7 0v-1h-1.635l.745 1.456.89-.456zm3.2 6.25l.891-.454-.001-.002-.89.456zM249.828 22l-.891.454.891 1.749.891-1.749-.891-.454zm14.65-28.75l-.89-.456-.001.002.891.454zm3.2-6.25l.89.456.746-1.456h-1.636v1zm-7.89-.456l-3.2 6.25 1.78.912 3.2-6.25-1.78-.912zm-3.201 6.252l-7.649 15 1.781.908 7.65-15-1.782-.908zm-5.868 15l-7.65-15-1.782.908 7.651 15 1.781-.908zm-7.651-15.002l-3.2-6.25-1.78.912 3.2 6.25 1.78-.912zM238.978-14h-7v2h7v-2zm-7.89 1.456l3.2 6.25 1.78-.912-3.2-6.25-1.78.912zm3.199 6.248l14.65 28.75 1.782-.908-14.65-28.75-1.782.908zm16.432 28.75l14.65-28.75-1.782-.908-14.65 28.75 1.782.908zm14.649-28.748l3.2-6.25-1.78-.912-3.2 6.25 1.78.912zm2.31-7.706h-7v2h7v-2zm22.876 29.75l-.891.454.001.002.89-.456zM275.904-13l.891-.454-.891-1.749-.891 1.749.891.454zm-14.65 28.75l.89.456.001-.002-.891-.454zm-3.2 6.25l-.89-.456-.746 1.456h1.636v-1zm7 0v1h.611l.279-.544-.89-.456zm3.2-6.25l.89.456.001-.002-.891-.454zm7.65-15l.891-.454-.891-1.747-.891 1.747.891.454zm7.65 15l-.891.454.001.002.89-.456zm3.2 6.25l-.89.456.278.544h.612v-1zm7 0v1h1.635l-.745-1.456-.89.456zm-2.309-6.704l-14.65-28.75-1.782.908 14.65 28.75 1.782-.908zm-16.432-28.75l-14.65 28.75 1.782.908 14.65-28.75-1.782-.908zm-14.649 28.748l-3.2 6.25 1.78.912 3.2-6.25-1.78-.912zM258.054 23h7v-2h-7v2zm7.89-.544l3.2-6.25-1.78-.912-3.2 6.25 1.78.912zm3.201-6.252l7.65-15-1.782-.908-7.65 15 1.782.908zm5.868-15l7.65 15 1.782-.908-7.65-15-1.782.908zm7.651 15.002l3.2 6.25 1.78-.912-3.2-6.25-1.78.912zm4.09 6.794h7v-2h-7v2zm7.89-1.456l-3.2-6.25-1.78.912 3.2 6.25 1.78-.912zM286.86-12.95v-1h-1v1h1zm0 6.25h-1v1h1v-1zm14.35 0h1v-1h-1v1zm0 28.75h-1v1h1v-1zm6.25 0v1h1v-1h-1zm0-28.75v-1h-1v1h1zm14.35 0v1h1v-1h-1zm0-6.25h1v-1h-1v1zm-35.95 0v6.25h2v-6.25h-2zm1 7.25h14.35v-2h-14.35v2zm13.35-1v28.75h2V-6.7h-2zm1 29.75h6.25v-2h-6.25v2zm7.25-1V-6.7h-2v28.75h2zm-1-27.75h14.35v-2h-14.35v2zm15.35-1v-6.25h-2v6.25h2zm-1-7.25h-34.95v2h34.95v-2zM333.101 22v1h1v-1h-1zm0-35h1v-1h-1v1zm-6.25 0v-1h-1v1h1zm0 35h-1v1h1v-1zm7.25 0v-35h-2v35h2zm-1-36h-6.25v2h6.25v-2zm-7.25 1v35h2v-35h-2zm1 36h6.25v-2h-6.25v2zm27.53-37c-10.202 0-18.5 8.298-18.5 18.5h2c0-9.098 7.402-16.5 16.5-16.5v-2zm-18.5 18.5c0 10.202 8.298 18.5 18.5 18.5v-2c-9.098 0-16.5-7.402-16.5-16.5h-2zm18.5 18.5c10.202 0 18.5-8.298 18.5-18.5h-2c0 9.098-7.402 16.5-16.5 16.5v2zm18.5-18.5c0-10.202-8.298-18.5-18.5-18.5v2c9.098 0 16.5 7.402 16.5 16.5h2zm-18.5 10.25c-5.648 0-10.25-4.602-10.25-10.25h-2c0 6.752 5.498 12.25 12.25 12.25v-2zM344.131 4.5c0-5.648 4.602-10.25 10.25-10.25v-2c-6.752 0-12.25 5.498-12.25 12.25h2zm10.25-10.25c5.648 0 10.25 4.602 10.25 10.25h2c0-6.752-5.498-12.25-12.25-12.25v2zm10.25 10.25c0 5.648-4.602 10.25-10.25 10.25v2c6.752 0 12.25-5.498 12.25-12.25h-2zM404.429-13l.008-1-1.008-.008V-13h1zm0 22.3l-.611.792 1.611 1.242V9.3h-1zm-22.5-17.35l.61-.792-.001-.001-.609.793zm-6.25-4.8l.609-.793-1.609-1.236v2.029h1zm0 34.9h-1v1h1v-1zm6.25 0v1h1v-1h-1zm0-22.15l.61-.792-1.61-1.242V-.1h1zm22.5 17.35l-.611.792.002.001.609-.793zm6.25 4.8l-.609.793 1.609 1.236V22.05h-1zm0-35h1v-.992l-.992-.008-.008 1zm-7.25-.05V9.3h2V-13h-2zm1.61 21.508l-22.5-17.35-1.221 1.584 22.5 17.35 1.221-1.584zM382.538-8.843l-6.25-4.8-1.218 1.586 6.25 4.8 1.218-1.586zm-7.859-4.007v34.9h2v-34.9h-2zm1 35.9h6.25v-2h-6.25v2zm7.25-1V-.1h-2v22.15h2zM381.318.692l22.5 17.35 1.221-1.584-22.5-17.35-1.221 1.584zm22.502 17.351l6.25 4.8 1.218-1.586-6.25-4.8-1.218 1.586zm7.859 4.007v-35h-2v35h2zm-.992-36l-6.25-.05-.016 2 6.25.05.016-2zM446.284 22v1h1v-1h-1zm0-35h1v-1h-1v1zm-6.25 0v-1h-1v1h1zm0 35h-1v1h1v-1zm7.25 0v-35h-2v35h2zm-1-36h-6.25v2h6.25v-2zm-7.25 1v35h2v-35h-2zm1 36h6.25v-2h-6.25v2zm44.331-26.35l.008 1 .992-.008v-.992h-1zM452.965 2l.843-.537-.011-.018-.013-.018-.819.573zm1.2 1.5l-.707.707.005.005.005.006.697-.718zm3.4 7.45h1v-1h-1v1zm-6.25 0v-1h-1v1h1zm30.55-7l.775-.632-.032-.04-.036-.035-.707.707zm-.4-.45l-.74.673.016.017.017.017.707-.707zm-3.35-6.8h-1v1.008l1.008-.008-.008-1zm7.25-.05v-.2h-2v.2h2zm0-.2c0-5.752-4.698-10.45-10.45-10.45v2c4.647 0 8.45 3.802 8.45 8.45h2zM474.915-14h-14.2v2h14.2v-2zm-14.2 0c-5.76 0-10.4 4.705-10.4 10.45h2c0-4.655 3.759-8.45 8.4-8.45v-2zm-10.4 10.45v.2h2v-.2h-2zm0 .2c0 2.202.661 4.253 1.83 5.923l1.639-1.146c-.93-1.33-1.469-2.979-1.469-4.777h-2zm1.806 5.887c.388.61.834 1.167 1.337 1.67l1.414-1.414a7.798 7.798 0 01-1.064-1.33l-1.687 1.074zm1.347 1.68a10.349 10.349 0 007.247 2.933v-2a8.348 8.348 0 01-5.854-2.368l-1.393 1.436zm7.247 2.933h12.6v-2h-12.6v2zm12.6 0c2.111 0 3.85 1.716 3.85 3.8h2c0-3.216-2.662-5.8-5.85-5.8v2zm3.85 3.8c0 2.084-1.739 3.8-3.85 3.8v2c3.188 0 5.85-2.584 5.85-5.8h-2zm-3.85 3.8h-10.95v2h10.95v-2zm-10.95 0a3.801 3.801 0 01-3.8-3.8h-2a5.8 5.8 0 005.8 5.8v-2zm-4.8-4.8h-6.25v2h6.25v-2zm-7.25 1c0 6.652 5.397 12.05 12.05 12.05v-2c-5.548 0-10.05-4.502-10.05-10.05h-2zM462.365 23h10.95v-2h-10.95v2zm10.95 0c6.652 0 12.05-5.398 12.05-12.05h-2c0 5.548-4.503 10.05-10.05 10.05v2zm12.05-12.05c0-2.891-1.037-5.562-2.725-7.632l-1.55 1.264a10.078 10.078 0 012.275 6.368h2zm-2.793-7.707a2.013 2.013 0 01-.139-.158c-.06-.072-.149-.18-.261-.292l-1.414 1.414c.038.038.073.08.138.158.06.072.15.18.262.292l1.414-1.414zm-.367-.416a11.98 11.98 0 00-8.89-3.927v2a9.979 9.979 0 017.41 3.273l1.48-1.346zm-8.89-3.927h-12.6v2h12.6v-2zm-12.6 0a2.222 2.222 0 01-2.2-2.2h-2c0 2.302 1.897 4.2 4.2 4.2v-2zm-2.2-2.2v-.2h-2v.2h2zm0-.2c0-1.198 1.002-2.2 2.2-2.2v-2c-2.303 0-4.2 1.898-4.2 4.2h2zm2.2-2.2h14.2v-2h-14.2v2zm14.2 0c1.197 0 2.2 1.002 2.2 2.2h2c0-2.302-1.898-4.2-4.2-4.2v2zm2.2 2.2v.2h2v-.2h-2zm1.008 1.2l6.25-.05-.016-2-6.25.05.016 2zm35.593-10.65v-1h-1v1h1zm0 6.25h-1v1h1v-1zm14.35 0h1v-1h-1v1zm0 28.75h-1v1h1v-1zm6.25 0v1h1v-1h-1zm0-28.75v-1h-1v1h1zm14.35 0v1h1v-1h-1zm0-6.25h1v-1h-1v1zm-35.95 0v6.25h2v-6.25h-2zm1 7.25h14.35v-2h-14.35v2zm13.35-1v28.75h2V-6.7h-2zm1 29.75h6.25v-2h-6.25v2zm7.25-1V-6.7h-2v28.75h2zm-1-27.75h14.35v-2h-14.35v2zm15.35-1v-6.25h-2v6.25h2zm-1-7.25h-34.95v2h34.95v-2zm33.79.95v-1h-1v1h1zm0 12.7v1h1v-1h-1zm-22.5 0h-1v1h1v-1zm0-12.7h1v-1h-1v1zm-6.25 0v-1h-1v1h1zm0 35h-1v1h1v-1zm6.25 0v1h1v-1h-1zm0-16.05v-1h-1v1h1zm22.5 0h1v-1h-1v1zm0 16.05h-1v1h1v-1zm6.25 0v1h1v-1h-1zm0-35h1v-1h-1v1zm-7.25 0V-.3h2V-13h-2zm1 11.7h-22.5v2h22.5v-2zm-21.5 1V-13h-2V-.3h2zm-1-13.7h-6.25v2h6.25v-2zm-7.25 1v35h2v-35h-2zm1 36h6.25v-2h-6.25v2zm7.25-1V5.95h-2V22h2zm-1-15.05h22.5v-2h-22.5v2zm21.5-1V22h2V5.95h-2zm1 17.05h6.25v-2h-6.25v2zm7.25-1v-35h-2v35h2zm-1-36h-6.25v2h6.25v-2zm39.99 7.25v1h1v-1h-1zm0-6.25h1v-1h-1v1zm0 35v1h1v-1h-1zm0-6.25h1v-1h-1v1zm-28.75-9.8v-1h-1v1h1zm22.5 0v1h1v-1h-1zm0-6.25h1v-1h-1v1zm-22.5 0h-1v1h1v-1zm3.2-5.45h25.55v-2h-25.55v2zm26.55-1V-13h-2v6.25h2zm-1-7.25h-25.55v2h25.55v-2zm-25.55 0c-5.759 0-10.4 4.705-10.4 10.45h2c0-4.655 3.759-8.45 8.4-8.45v-2zm-10.4 10.45v16.1h2v-16.1h-2zm0 16.1c0 5.745 4.641 10.45 10.4 10.45v-2c-4.641 0-8.4-3.795-8.4-8.45h-2zm10.4 10.45h25.55v-2h-25.55v2zm26.55-1v-6.25h-2V22h2zm-1-7.25h-25.55v2h25.55v-2zm-25.55 0a2.223 2.223 0 01-2.2-2.2h-2c0 2.302 1.898 4.2 4.2 4.2v-2zm-2.2-2.2v-6.6h-2v6.6h2zm-1-5.6h22.5v-2h-22.5v2zm23.5-1V-.3h-2v6.25h2zm-1-7.25h-22.5v2h22.5v-2zm-21.5 1v-3.25h-2V-.3h2zm0-3.25c0-1.198 1.003-2.2 2.2-2.2v-2c-2.302 0-4.2 1.898-4.2 4.2h2zm85.856-4.65l-.609-.793h-.001l.61.793zM675.552.45l-.61.793.61.468.609-.468-.609-.793zm-11.25-8.65l.609-.793-.609.793zm-6.25-4.8l.609-.793-1.609-1.236V-13h1zm0 35h-1v1h1v-1zm6.25 0v1h1v-1h-1zm0-22.3l.607-.795-1.607-1.228V-.3h1zm6.15 4.7l.612-.79-.005-.005-.607.795zm5.1 3.95l-.613.79.613.475.612-.474-.612-.791zm5.1-3.95l-.607-.795-.006.004.613.791zm6.15-4.7h1v-2.023l-1.607 1.228.607.795zm0 22.3h-1v1h1v-1zm6.25 0v1h1v-1h-1zm0-35h1v-2.029l-1.609 1.236.609.793zm-6.86 4.007l-11.25 8.65 1.219 1.586 11.25-8.65-1.219-1.586zm-10.031 8.65l-11.25-8.65-1.219 1.586 11.25 8.65 1.219-1.586zm-11.25-8.65l-6.25-4.8-1.218 1.586 6.25 4.8 1.218-1.586zM657.052-13v35h2v-35h-2zm1 36h6.25v-2h-6.25v2zm7.25-1V-.3h-2V22h2zM663.695.495l6.15 4.7 1.214-1.59-6.15-4.7-1.214 1.59zm6.144 4.696l5.1 3.95 1.225-1.582-5.1-3.95-1.225 1.582zm6.325 3.95l5.1-3.95-1.225-1.582-5.1 3.95 1.225 1.582zm5.095-3.946l6.15-4.7-1.214-1.59-6.15 4.7 1.214 1.59zM685.802-.3V22h2V-.3h-2zm1 23.3h6.25v-2h-6.25v2zm7.25-1v-35h-2v35h2zm-1.609-35.793l-6.25 4.8 1.218 1.586 6.25-4.8-1.218-1.586zm40.599 7.043v1h1v-1h-1zm0-6.25h1v-1h-1v1zm0 35v1h1v-1h-1zm0-6.25h1v-1h-1v1zm-28.75-9.8v-1h-1v1h1zm22.5 0v1h1v-1h-1zm0-6.25h1v-1h-1v1zm-22.5 0h-1v1h1v-1zm3.2-5.45h25.55v-2h-25.55v2zm26.55-1V-13h-2v6.25h2zm-1-7.25h-25.55v2h25.55v-2zm-25.55 0c-5.759 0-10.4 4.705-10.4 10.45h2c0-4.655 3.759-8.45 8.4-8.45v-2zm-10.4 10.45v16.1h2v-16.1h-2zm0 16.1c0 5.745 4.641 10.45 10.4 10.45v-2c-4.641 0-8.4-3.795-8.4-8.45h-2zm10.4 10.45h25.55v-2h-25.55v2zm26.55-1v-6.25h-2V22h2zm-1-7.25h-25.55v2h25.55v-2zm-25.55 0a2.222 2.222 0 01-2.2-2.2h-2c0 2.302 1.898 4.2 4.2 4.2v-2zm-2.2-2.2v-6.6h-2v6.6h2zm-1-5.6h22.5v-2h-22.5v2zm23.5-1V-.3h-2v6.25h2zm-1-7.25h-22.5v2h22.5v-2zm-21.5 1v-3.25h-2V-.3h2zm0-3.25c0-1.198 1.002-2.2 2.2-2.2v-2c-2.302 0-4.2 1.898-4.2 4.2h2zm32.74-9.4v-1h-1v1h1zm0 6.25h-1v1h1v-1zm14.35 0h1v-1h-1v1zm0 28.75h-1v1h1v-1zm6.25 0v1h1v-1h-1zm0-28.75v-1h-1v1h1zm14.35 0v1h1v-1h-1zm0-6.25h1v-1h-1v1zm-35.95 0v6.25h2v-6.25h-2zm1 7.25h14.35v-2h-14.35v2zm13.35-1v28.75h2V-6.7h-2zm1 29.75h6.25v-2h-6.25v2zm7.25-1V-6.7h-2v28.75h2zm-1-27.75h14.35v-2h-14.35v2zm15.35-1v-6.25h-2v6.25h2zm-1-7.25h-34.95v2h34.95v-2zm25.628 29.7l-.891.454.001.002.89-.456zM783.96-13l.891-.454-.891-1.749-.891 1.749.891.454zm-14.65 28.75l.89.456.001-.002-.891-.454zm-3.2 6.25l-.89-.456-.745 1.456h1.635v-1zm7 0v1h.612l.278-.544-.89-.456zm3.2-6.25l.89.456.001-.002-.891-.454zm7.65-15l.891-.454-.891-1.747-.89 1.747.89.454zm7.65 15l-.89.454v.002l.89-.456zm3.2 6.25l-.89.456.279.544h.611v-1zm7 0v1h1.636l-.746-1.456-.89.456zm-2.309-6.704l-14.65-28.75-1.782.908 14.65 28.75 1.782-.908zm-16.432-28.75l-14.65 28.75 1.782.908 14.65-28.75-1.782-.908zM768.42 15.294l-3.2 6.25 1.78.912 3.2-6.25-1.78-.912zM766.11 23h7v-2h-7v2zm7.89-.544l3.2-6.25-1.78-.912-3.2 6.25 1.78.912zm3.201-6.252l7.65-15-1.781-.908-7.651 15 1.782.908zm5.869-15l7.65 15 1.781-.908-7.65-15-1.781.908zm7.65 15.002l3.2 6.25 1.78-.912-3.2-6.25-1.78.912zM794.81 23h7v-2h-7v2zm7.89-1.456l-3.2-6.25-1.78.912 3.2 6.25 1.78-.912zM820.786-13v-1h-.612l-.278.544.89.456zm-3.2 6.25l-.89-.456-.001.002.891.454zm-7.65 15l-.891.454.891 1.747.891-1.747-.891-.454zm-7.65-15l.891-.454-.001-.002-.89.456zm-3.2-6.25l.89-.456-.279-.544h-.611v1zm-7 0v-1h-1.636l.746 1.456.89-.456zm3.2 6.25l.891-.454-.001-.002-.89.456zM809.936 22l-.891.454.891 1.749.891-1.749-.891-.454zm14.65-28.75l-.89-.456-.001.002.891.454zm3.2-6.25l.89.456.745-1.456h-1.635v1zm-7.89-.456l-3.2 6.25 1.78.912 3.2-6.25-1.78-.912zm-3.201 6.252l-7.65 15 1.782.908 7.65-15-1.782-.908zm-5.868 15l-7.65-15-1.782.908 7.65 15 1.782-.908zm-7.651-15.002l-3.2-6.25-1.78.912 3.2 6.25 1.78-.912zM799.086-14h-7v2h7v-2zm-7.89 1.456l3.2 6.25 1.78-.912-3.2-6.25-1.78.912zm3.199 6.248l14.65 28.75 1.782-.908-14.65-28.75-1.782.908zm16.432 28.75l14.65-28.75-1.782-.908-14.65 28.75 1.782.908zm14.649-28.748l3.2-6.25-1.78-.912-3.2 6.25 1.78.912zm2.31-7.706h-7v2h7v-2zm35.871 7.25v1h1v-1h-1zm0-6.25h1v-1h-1v1zm0 35v1h1v-1h-1zm0-6.25h1v-1h-1v1zm-28.75-9.8v-1h-1v1h1zm22.5 0v1h1v-1h-1zm0-6.25h1v-1h-1v1zm-22.5 0h-1v1h1v-1zm3.2-5.45h25.55v-2h-25.55v2zm26.55-1V-13h-2v6.25h2zm-1-7.25h-25.55v2h25.55v-2zm-25.55 0c-5.759 0-10.4 4.705-10.4 10.45h2c0-4.655 3.759-8.45 8.4-8.45v-2zm-10.4 10.45v16.1h2v-16.1h-2zm0 16.1c0 5.745 4.641 10.45 10.4 10.45v-2c-4.641 0-8.4-3.795-8.4-8.45h-2zm10.4 10.45h25.55v-2h-25.55v2zm26.55-1v-6.25h-2V22h2zm-1-7.25h-25.55v2h25.55v-2zm-25.55 0a2.222 2.222 0 01-2.2-2.2h-2c0 2.302 1.898 4.2 4.2 4.2v-2zm-2.2-2.2v-6.6h-2v6.6h2zm-1-5.6h22.5v-2h-22.5v2zm23.5-1V-.3h-2v6.25h2zm-1-7.25h-22.5v2h22.5v-2zm-21.5 1v-3.25h-2V-.3h2zm0-3.25c0-1.198 1.002-2.2 2.2-2.2v-2c-2.302 0-4.2 1.898-4.2 4.2h2zm55.99 9.4l-.104-.995-1.435.152.645 1.29.894-.447zm2.7-.75l-.419-.908-.006.003.425.905zm2.75-15.25l-.707.707.707-.707zm-28.75-2.75v-1h-1v1h1zm0 35h-1v1h1v-1zm6.25 0v1h1v-1h-1zm0-16.1V5h-1v1h1zm11.55 3l.895-.447-.019-.038-.022-.036-.854.521zm.15.3l-.894.447.004.008.89-.455zm3.35 6.55l-.89.455.89-.455zm3.2 6.25l-.89.456.279.544h.611v-1zm7 0v1h1.636l-.745-1.456-.891.456zm-3.2-6.25l-.894.447.004.009.89-.456zM874.847-.2h-1V.803L874.851.8l-.004-1zm0-6.45v-1h-1v1h1zm18.1.9l-.707.707.707-.707zm-.95 5.2l-.398-.917-.025.01-.024.013.447.894zm-1.3.3v-1h-.003l.003 1zm1.305 7.095a9.342 9.342 0 003.021-.84l-.851-1.81a7.352 7.352 0 01-2.379.66l.209 1.99zm3.015-.837a10.478 10.478 0 006.08-9.508h-2a8.478 8.478 0 01-4.919 7.692l.839 1.816zm6.08-9.508a10.37 10.37 0 00-3.042-7.357l-1.415 1.414a8.368 8.368 0 012.457 5.943h2zm-3.042-7.357a10.373 10.373 0 00-7.358-3.043v2a8.37 8.37 0 015.943 2.457l1.415-1.414zm-7.358-3.043h-22.1v2h22.1v-2zm-23.1 1v35h2v-35h-2zm1 36h6.25v-2h-6.25v2zm7.25-1V6h-2v16.1h2zm-1-15.1h6.25V5h-6.25v2zm6.25 0c1.881 0 3.518 1 4.447 2.521l1.707-1.042C885.98 6.399 883.717 5 881.097 5v2zm4.406 2.447l.15.3 1.789-.894-.15-.3-1.789.894zm.154.308l3.35 6.55 1.781-.91-3.35-6.55-1.781.91zm3.35 6.55l3.2 6.25 1.781-.91-3.2-6.25-1.781.91zm4.09 6.795h7v-2h-7v2zm7.891-1.456l-3.2-6.25-1.781.912 3.2 6.25 1.781-.912zm-3.196-6.241l-5-10-1.789.894 5 10 1.789-.894zM875.847-.2v-6.45h-2V-.2h2zm-1-5.45h15.85v-2h-15.85v2zm15.85 0c.775 0 1.284.347 1.543.607l1.415-1.414a4.151 4.151 0 00-2.958-1.193v2zm1.543.607a2.3 2.3 0 01.657 1.593h2a4.298 4.298 0 00-1.242-3.007l-1.415 1.414zm.657 1.593c0 .853-.515 1.642-1.298 1.983l.797 1.834a4.175 4.175 0 002.501-3.817h-2zm-1.347 2.006a1.916 1.916 0 01-.853.194v2c.596 0 1.2-.132 1.748-.406l-.895-1.788zm-.856.194l-15.85.05.007 2 15.85-.05-.007-2zm47.577-2.1l.008 1 .992-.008v-.992h-1zM906.871 2l.844-.537-.012-.018-.013-.018-.819.573zm1.2 1.5l-.707.707.005.005.005.006.697-.718zm3.4 7.45h1v-1h-1v1zm-6.25 0v-1h-1v1h1zm30.55-7l.775-.632-.032-.04-.036-.035-.707.707zm-.4-.45l-.74.673.016.017.017.017.707-.707zm-3.35-6.8h-1v1.008l1.008-.008-.008-1zm7.25-.05v-.2h-2v.2h2zm0-.2c0-5.752-4.698-10.45-10.45-10.45v2c4.648 0 8.45 3.802 8.45 8.45h2zM928.821-14h-14.2v2h14.2v-2zm-14.2 0c-5.759 0-10.4 4.705-10.4 10.45h2c0-4.655 3.759-8.45 8.4-8.45v-2zm-10.4 10.45v.2h2v-.2h-2zm0 .2c0 2.202.661 4.253 1.831 5.923l1.638-1.146c-.93-1.33-1.469-2.979-1.469-4.777h-2zm1.806 5.887c.388.61.834 1.167 1.337 1.67l1.414-1.414a7.745 7.745 0 01-1.063-1.33l-1.688 1.074zm1.347 1.68a10.349 10.349 0 007.247 2.933v-2a8.348 8.348 0 01-5.854-2.368l-1.393 1.436zm7.247 2.933h12.6v-2h-12.6v2zm12.6 0c2.111 0 3.85 1.716 3.85 3.8h2c0-3.216-2.661-5.8-5.85-5.8v2zm3.85 3.8c0 2.084-1.739 3.8-3.85 3.8v2c3.189 0 5.85-2.584 5.85-5.8h-2zm-3.85 3.8h-10.95v2h10.95v-2zm-10.95 0a3.801 3.801 0 01-3.8-3.8h-2c0 3.202 2.598 5.8 5.8 5.8v-2zm-4.8-4.8h-6.25v2h6.25v-2zm-7.25 1c0 6.652 5.398 12.05 12.05 12.05v-2c-5.548 0-10.05-4.502-10.05-10.05h-2zM916.271 23h10.95v-2h-10.95v2zm10.95 0c6.652 0 12.05-5.398 12.05-12.05h-2c0 5.548-4.502 10.05-10.05 10.05v2zm12.05-12.05c0-2.891-1.037-5.562-2.725-7.632l-1.55 1.264a10.073 10.073 0 012.275 6.368h2zm-2.793-7.707a2.545 2.545 0 01-.139-.158 3.917 3.917 0 00-.261-.292l-1.414 1.414c.038.038.073.08.139.158.059.072.149.18.261.292l1.414-1.414zm-.367-.416a11.978 11.978 0 00-8.89-3.927v2a9.979 9.979 0 017.41 3.273l1.48-1.346zm-8.89-3.927h-12.6v2h12.6v-2zm-12.6 0a2.222 2.222 0 01-2.2-2.2h-2c0 2.302 1.898 4.2 4.2 4.2v-2zm-2.2-2.2v-.2h-2v.2h2zm0-.2c0-1.198 1.002-2.2 2.2-2.2v-2c-2.302 0-4.2 1.898-4.2 4.2h2zm2.2-2.2h14.2v-2h-14.2v2zm14.2 0c1.198 0 2.2 1.002 2.2 2.2h2c0-2.302-1.898-4.2-4.2-4.2v2zm2.2 2.2v.2h2v-.2h-2zm1.008 1.2l6.25-.05-.016-2-6.25.05.016 2zm46.228-4.45v1h1v-1h-1zm0-6.25h1v-1h-1v1zm0 35v1h1v-1h-1zm0-6.25h1v-1h-1v1zm-28.75-9.8v-1h-1v1h1zm22.5 0v1h1v-1h-1zm0-6.25h1v-1h-1v1zm-22.5 0h-1v1h1v-1zm3.2-5.45h25.55v-2h-25.55v2zm26.55-1V-13h-2v6.25h2zm-1-7.25h-25.55v2h25.55v-2zm-25.55 0c-5.759 0-10.4 4.705-10.4 10.45h2c0-4.655 3.759-8.45 8.4-8.45v-2zm-10.4 10.45v16.1h2v-16.1h-2zm0 16.1c0 5.745 4.641 10.45 10.4 10.45v-2c-4.641 0-8.4-3.795-8.4-8.45h-2zm10.4 10.45h25.55v-2h-25.55v2zm26.55-1v-6.25h-2V22h2zm-1-7.25h-25.55v2h25.55v-2zm-25.55 0a2.222 2.222 0 01-2.2-2.2h-2c0 2.302 1.898 4.2 4.2 4.2v-2zm-2.2-2.2v-6.6h-2v6.6h2zm-1-5.6h22.5v-2h-22.5v2zm23.5-1V-.3h-2v6.25h2zm-1-7.25h-22.5v2h22.5v-2zm-21.5 1v-3.25h-2V-.3h2zm0-3.25c0-1.198 1.002-2.2 2.2-2.2v-2c-2.302 0-4.2 1.898-4.2 4.2h2z" fill="url(#a)"/><defs><linearGradient id="a" x1="-45" y1="-15" x2="1025" y2="-15" gradientUnits="userSpaceOnUse"><stop stop-color="#7F5CFF" stop-opacity="0"/><stop offset=".495" stop-color="#7F5CFF"/><stop offset="1" stop-color="#7F5CFF" stop-opacity="0"/></linearGradient></defs></svg>