<svg width="152" height="11" fill="none" xmlns="http://www.w3.org/2000/svg"><path d="M5.962 6.875l-.068.495.033.005h.034v-.5zM3.837 4.75h-.5v.034l.004.034.496-.068zm0-12.225h.5v-.5h-.5v.5zm-3.125 0v-.5h-.5v.5h.5zM1.287 6.9l.451-.215-.004-.009-.447.224zm2.525 2.55l-.224.447.224-.447zm11.325.575v.5h.5v-.5h-.5zm0-3.125h.5v-.499l-.499-.001-.001.5zm-9.108-.52a1.993 1.993 0 01-1.697-1.698l-.99.136A2.993 2.993 0 005.893 7.37l.135-.99zM4.337 4.75V-7.475h-1V4.75h1zm-.5-12.725H.712v1h3.125v-1zm-3.625.5V4.45h1V-7.475h-1zm0 11.925c0 .953.218 1.855.628 2.674l.894-.448a4.936 4.936 0 01-.522-2.226h-1zm.624 2.665a6.045 6.045 0 002.752 2.782l.448-.894a5.045 5.045 0 01-2.298-2.318l-.902.43zm2.752 2.782c.82.41 1.72.628 2.674.628v-1a4.936 4.936 0 01-2.226-.522l-.448.894zm2.674.628h8.875v-1H6.262v1zm9.375-.5V6.9h-1v3.125h1zM15.138 6.4l-9.175-.025-.002 1 9.175.025.002-1zm17.743.475l-.446.227.446-.227zM25.556-7.5L26-7.727l-.445-.874-.446.874.446.227zM18.23 6.875l.445.228v-.001l-.445-.227zM16.63 10l-.445-.228-.373.728h.818V10zm3.5 0v.5h.306l.139-.272L20.13 10zm1.6-3.125l.445.228-.445-.228zm3.825-7.5L26-.852l-.445-.874-.446.874.446.227zm3.825 7.5l-.446.227.446-.227zM30.98 10l-.445.228.14.272h.305V10zm3.5 0v.5h.818l-.373-.728-.445.228zm-1.155-3.352L26.001-7.727l-.89.454 7.324 14.375.891-.454zM25.11-7.727L17.785 6.648l.891.454 7.325-14.375-.89-.454zM17.786 6.647l-1.6 3.125.89.456 1.6-3.125-.89-.456zM16.63 10.5h3.5v-1h-3.5v1zm3.945-.272l1.6-3.125-.89-.456-1.6 3.125.89.456zm1.6-3.126L26-.398l-.89-.454-3.826 7.5.891.454zm2.934-7.5l3.825 7.5.891-.454L26-.852l-.89.454zm3.826 7.5l1.6 3.126.89-.456-1.6-3.125-.89.456zM30.98 10.5h3.5v-1h-3.5v1zm3.945-.728l-1.6-3.125-.89.456 1.6 3.125.89-.456zM48.436-7.5V-8h-.5v.5h.5zm-11.25 0h.5V-8h-.5v.5zm-3.124 0V-8h-.5v.5h.5zm17.5 0h.5V-8h-.5v.5zm-3.625 0v8.75h1V-7.5h-1zm0 8.75a5.133 5.133 0 01-5.125 5.125v1a6.133 6.133 0 006.125-6.125h-1zm-5.125 5.125a5.134 5.134 0 01-5.125-5.125h-1a6.134 6.134 0 006.125 6.125v-1zM37.687 1.25V-7.5h-1v8.75h1zm-.5-9.25h-3.125v1h3.125v-1zm-3.625.5v8.75h1V-7.5h-1zm0 8.75c0 5.101 4.148 9.25 9.25 9.25v-1c-4.55 0-8.25-3.701-8.25-8.25h-1zm9.25 9.25c5.1 0 9.25-4.149 9.25-9.25h-1c0 4.549-3.702 8.25-8.25 8.25v1zm9.25-9.25V-7.5h-1v8.75h1zm-.5-9.25h-3.125v1h3.125v-1zm16.87.5l.004-.5-.504-.004v.504h.5zm0 11.15l-.306.396.806.62V3.651h-.5zm-11.25-8.675l.305-.396-.305.396zm-3.125-2.4l.304-.397-.804-.617v1.014h.5zm0 17.45h-.5v.5h.5v-.5zm3.125 0v.5h.5v-.5h-.5zm0-11.075l.305-.396-.805-.62v1.016h.5zm11.25 8.675l-.306.396h.001l.305-.396zm3.125 2.4l-.305.396.805.618v-1.014h-.5zm0-17.5h.5v-.496l-.496-.004-.004.5zM67.932-7.5V3.65h1V-7.5h-1zm.805 10.754l-11.25-8.675-.61.792 11.25 8.675.61-.792zm-11.25-8.676l-3.126-2.4-.609.794 3.125 2.4.61-.794zm-3.93-2.003v17.45h1v-17.45h-1zm.5 17.95h3.125v-1h-3.125v1zm3.625-.5V-1.05h-1v11.075h1zM56.876-.654l11.25 8.675.611-.792-11.25-8.675-.61.792zm11.251 8.676l3.125 2.4.61-.794-3.126-2.4-.609.794zm3.93 2.003v-17.5h-1v17.5h1zm-.496-18L68.436-8l-.008 1 3.125.025.008-1zm19.74 3.6v.5h.5v-.5h-.5zm0-3.125h.5V-8h-.5v.5zm0 17.5v.5h.5V10h-.5zm0-3.125h.5v-.5h-.5v.5zm-8.75-10.75h8.75v-1h-8.75v1zm9.25-.5V-7.5h-1v3.125h1zM91.302-8h-8.75v1h8.75v-1zm-8.75 0c-5.1 0-9.25 4.149-9.25 9.25h1c0-4.549 3.702-8.25 8.25-8.25v-1zm-9.25 9.25c0 5.101 4.15 9.25 9.25 9.25v-1c-4.548 0-8.25-3.701-8.25-8.25h-1zm9.25 9.25h8.75v-1h-8.75v1zm9.25-.5V6.875h-1V10h1zm-.5-3.625h-8.75v1h8.75v-1zm-8.75 0a5.133 5.133 0 01-5.124-5.125h-1a6.133 6.133 0 006.125 6.125v-1zM77.428 1.25a5.133 5.133 0 015.125-5.125v-1a6.133 6.133 0 00-6.125 6.125h1zm30.751-8.75V-8h-.5v.5h.5zm0 6.35v.5h.5v-.5h-.5zm-11.25 0h-.5v.5h.5v-.5zm0-6.35h.5V-8h-.5v.5zm-3.125 0V-8h-.5v.5h.5zm0 17.5h-.5v.5h.5V10zm3.125 0v.5h.5V10h-.5zm0-8.025v-.5h-.5v.5h.5zm11.25 0h.5v-.5h-.5v.5zm0 8.025h-.5v.5h.5V10zm3.125 0v.5h.5V10h-.5zm0-17.5h.5V-8h-.5v.5zm-3.625 0v6.35h1V-7.5h-1zm.5 5.85h-11.25v1h11.25v-1zm-10.75.5V-7.5h-1v6.35h1zm-.5-6.85h-3.125v1h3.125v-1zm-3.625.5V10h1V-7.5h-1zm.5 18h3.125v-1h-3.125v1zm3.625-.5V1.975h-1V10h1zm-.5-7.525h11.25v-1h-11.25v1zm10.75-.5V10h1V1.975h-1zm.5 8.525h3.125v-1h-3.125v1zm3.625-.5V-7.5h-1V10h1zm-.5-18h-3.125v1h3.125v-1zm19.995 3.625v.5h.5v-.5h-.5zm0-3.125h.5V-8h-.5v.5zm0 17.5v.5h.5V10h-.5zm0-3.125h.5v-.5h-.5v.5zm-14.375-4.9v-.5h-.5v.5h.5zm11.25 0v.5h.5v-.5h-.5zm0-3.125h.5v-.5h-.5v.5zm-11.25 0h-.5v.5h.5v-.5zm1.6-2.725h12.775v-1h-12.775v1zm13.275-.5V-7.5h-1v3.125h1zm-.5-3.625h-12.775v1h12.775v-1zm-12.775 0c-2.88 0-5.2 2.352-5.2 5.225h1c0-2.327 1.879-4.225 4.2-4.225v-1zm-5.2 5.225v8.05h1v-8.05h-1zm0 8.05c0 2.873 2.32 5.225 5.2 5.225v-1c-2.321 0-4.2-1.898-4.2-4.225h-1zm5.2 5.225h12.775v-1h-12.775v1zm13.275-.5V6.875h-1V10h1zm-.5-3.625h-12.775v1h12.775v-1zm-12.775 0c-.599 0-1.1-.501-1.1-1.1h-1c0 1.151.949 2.1 2.1 2.1v-1zm-1.1-1.1v-3.3h-1v3.3h1zm-.5-2.8h11.25v-1h-11.25v1zm11.75-.5V-1.15h-1v3.125h1zm-.5-3.625h-11.25v1h11.25v-1zm-10.75.5v-1.625h-1v1.625h1zm0-1.625c0-.599.501-1.1 1.1-1.1v-1c-1.151 0-2.1.949-2.1 2.1h1zm25.12-4.725l.354.354.853-.854h-1.207v.5zm-8.75 0V-8h-.5v.5h.5zm0 17.5h-.5v.5h.5V10zm14.9-2.575l-.354-.354-.002.003.356.351zm.5-.525l.38.325-.38-.325zm-6.675-14.375l-.354-.354-.853.854h1.207v-.5zM136.893 6.9h-.5v.5h.5v-.5zm0-11.25v-.5h-.5v.5h.5zm5.65-3.65h-8.75v1h8.75v-1zm-9.25.5V10h1V-7.5h-1zm.5 18h8.75v-1h-8.75v1zm8.75 0a9.09 9.09 0 006.506-2.724l-.712-.702a8.095 8.095 0 01-5.794 2.426v1zm6.504-2.721c.172-.172.361-.361.526-.554l-.76-.65a9.151 9.151 0 01-.474.496l.708.708zm.526-.555a9.178 9.178 0 002.195-5.974h-1c0 2.028-.73 3.889-1.956 5.326l.761.648zm2.195-5.974c0-5.103-4.151-9.225-9.25-9.225v1c4.551 0 8.25 3.678 8.25 8.225h1zm-8.896-8.371l.025-.025-.708-.708-.025.025.708.708zM142.518 6.4h-5.625v1h5.625v-1zm-5.125.5V-4.35h-1V6.9h1zm-.5-10.75h5.625v-1h-5.625v1zm5.625 0a5.133 5.133 0 015.125 5.125h1a6.134 6.134 0 00-6.125-6.125v1zm5.125 5.125a5.133 5.133 0 01-5.125 5.125v1a6.134 6.134 0 006.125-6.125h-1z" fill="url(#a)"/><defs><linearGradient id="a" x1="-64" y1="-9" x2="216" y2="-9" gradientUnits="userSpaceOnUse"><stop stop-color="#7F5CFF" stop-opacity="0"/><stop offset=".495" stop-color="#7F5CFF"/><stop offset="1" stop-color="#7F5CFF" stop-opacity="0"/></linearGradient></defs></svg>