<svg width="152" height="23" fill="none" xmlns="http://www.w3.org/2000/svg"><path d="M.155-12.95v-1h-1v1h1zm0 6.25h-1v1h1v-1zm14.35 0h1v-1h-1v1zm0 28.75h-1v1h1v-1zm6.25 0v1h1v-1h-1zm0-28.75v-1h-1v1h1zm14.35 0v1h1v-1h-1zm0-6.25h1v-1h-1v1zm-35.95 0v6.25h2v-6.25h-2zm1 7.25h14.35v-2H.155v2zm13.35-1v28.75h2V-6.7h-2zm1 29.75h6.25v-2h-6.25v2zm7.25-1V-6.7h-2v28.75h2zm-1-27.75h14.35v-2h-14.35v2zm15.35-1v-6.25h-2v6.25h2zm-1-7.25H.155v2h34.95v-2zm40.04 7.2v1h1v-1h-1zm0-6.25h1v-1h-1v1zm0 35v1h1v-1h-1zm0-6.25h1v-1h-1v1zm-28.75-9.8v-1h-1v1h1zm22.5 0v1h1v-1h-1zm0-6.25h1v-1h-1v1zm-22.5 0h-1v1h1v-1zm3.2-5.45h25.55v-2h-25.55v2zm26.55-1V-13h-2v6.25h2zm-1-7.25h-25.55v2h25.55v-2zm-25.55 0c-5.759 0-10.4 4.705-10.4 10.45h2c0-4.655 3.76-8.45 8.4-8.45v-2zm-10.4 10.45v16.1h2v-16.1h-2zm0 16.1c0 5.745 4.641 10.45 10.4 10.45v-2c-4.64 0-8.4-3.795-8.4-8.45h-2zM49.596 23h25.55v-2h-25.55v2zm26.55-1v-6.25h-2V22h2zm-1-7.25h-25.55v2h25.55v-2zm-25.55 0a2.223 2.223 0 01-2.2-2.2h-2c0 2.302 1.898 4.2 4.2 4.2v-2zm-2.2-2.2v-6.6h-2v6.6h2zm-1-5.6h22.5v-2h-22.5v2zm23.5-1V-.3h-2v6.25h2zm-1-7.25h-22.5v2h22.5v-2zm-21.5 1v-3.25h-2V-.3h2zm0-3.25c0-1.198 1.003-2.2 2.2-2.2v-2c-2.302 0-4.2 1.898-4.2 4.2h2zm63.241 19.3l-.891.454.001.002.89-.456zM95.986-13l.89-.454-.89-1.749-.891 1.749.89.454zm-14.65 28.75l.89.456v-.002l-.89-.454zm-3.2 6.25l-.89-.456L76.5 23h1.636v-1zm7 0v1h.611l.279-.544-.89-.456zm3.2-6.25l.89.456v-.002l-.89-.454zm7.65-15l.89-.454-.89-1.747-.891 1.747.89.454zm7.65 15l-.891.454.001.002.89-.456zm3.2 6.25l-.89.456.278.544h.612v-1zm7 0v1h1.635l-.745-1.456-.89.456zm-2.309-6.704l-14.65-28.75-1.782.908 14.65 28.75 1.782-.908zm-16.432-28.75l-14.65 28.75 1.782.908 14.65-28.75-1.782-.908zm-14.65 28.748l-3.2 6.25 1.78.912 3.2-6.25-1.78-.912zM78.136 23h7v-2h-7v2zm7.89-.544l3.2-6.25-1.78-.912-3.2 6.25 1.78.912zm3.202-6.252l7.65-15-1.782-.908-7.65 15 1.782.908zm5.868-15l7.65 15 1.782-.908-7.65-15-1.782.908zm7.651 15.002l3.2 6.25 1.78-.912-3.2-6.25-1.78.912zm4.09 6.794h7v-2h-7v2zm7.89-1.456l-3.2-6.25-1.78.912 3.2 6.25 1.78-.912zM145.604-8.2l-.609-.793.609.793zM134.354.45l-.609.793.609.468.61-.468-.61-.793zm-11.25-8.65l.61-.793-.61.793zm-6.25-4.8l.61-.793-1.61-1.236V-13h1zm0 35h-1v1h1v-1zm6.25 0v1h1v-1h-1zm0-22.3l.608-.795-1.608-1.228V-.3h1zm6.151 4.7l.612-.79-.005-.005-.607.795zm5.099 3.95l-.612.79.612.475.613-.474-.613-.791zm5.1-3.95l-.607-.795-.005.004.612.791zm6.15-4.7h1v-2.023l-1.607 1.228.607.795zm0 22.3h-1v1h1v-1zm6.25 0v1h1v-1h-1zm0-35h1v-2.029l-1.609 1.236.609.793zm-6.859 4.007l-11.25 8.65 1.219 1.586 11.25-8.65-1.219-1.586zm-10.031 8.65l-11.25-8.65-1.219 1.586 11.25 8.65 1.219-1.586zm-11.25-8.65l-6.25-4.8-1.219 1.586 6.25 4.8 1.219-1.586zM115.854-13v35h2v-35h-2zm1 36h6.25v-2h-6.25v2zm7.25-1V-.3h-2V22h2zM122.497.495l6.15 4.7 1.215-1.59-6.15-4.7-1.215 1.59zm6.145 4.696l5.1 3.95 1.225-1.582-5.1-3.95-1.225 1.582zm6.325 3.95l5.1-3.95-1.225-1.582-5.1 3.95 1.225 1.582zm5.095-3.946l6.15-4.7-1.215-1.59-6.15 4.7 1.215 1.59zM144.604-.3V22h2V-.3h-2zm1 23.3h6.25v-2h-6.25v2zm7.25-1v-35h-2v35h2zm-1.609-35.793l-6.25 4.8 1.219 1.586 6.25-4.8-1.219-1.586z" fill="url(#a)"/><defs><linearGradient id="a" x1="-459" y1="-15" x2="611" y2="-15" gradientUnits="userSpaceOnUse"><stop stop-color="#7F5CFF" stop-opacity="0"/><stop offset=".495" stop-color="#7F5CFF"/><stop offset="1" stop-color="#7F5CFF" stop-opacity="0"/></linearGradient></defs></svg>