<svg width="210" height="11" fill="none" xmlns="http://www.w3.org/2000/svg"><path d="M41.562-52.675l.004.5.496-.004v-.496h-.5zM25.862-50l.422-.268-.006-.01-.006-.009-.41.287zm.6.75l-.353.354.005.005.348-.359zm1.7 3.725h.5v-.5h-.5v.5zm-3.125 0v-.5h-.5v.5h.5zm15.275-3.5l.388-.316-.016-.02-.018-.018-.354.354zm-.2-.225l-.37.336.008.01.009.008.353-.354zm-1.675-3.4h-.5v.504l.504-.004-.004-.5zm3.625-.025v-.1h-1v.1h1zm0-.1A5.237 5.237 0 0036.837-58v1a4.237 4.237 0 014.225 4.225h1zM36.837-58h-7.1v1h7.1v-1zm-7.1 0c-2.88 0-5.2 2.352-5.2 5.225h1c0-2.327 1.88-4.225 4.2-4.225v-1zm-5.2 5.225v.1h1v-.1h-1zm0 .1c0 1.1.33 2.126.916 2.962l.819-.574a4.146 4.146 0 01-.735-2.388h-1zm.903 2.943c.194.306.417.584.669.836l.707-.708a3.887 3.887 0 01-.532-.664l-.844.536zm.674.84a5.173 5.173 0 003.623 1.467v-1a4.174 4.174 0 01-2.927-1.184l-.696.718zm3.623 1.467h6.3v-1h-6.3v1zm6.3 0c1.056 0 1.925.858 1.925 1.9h1c0-1.608-1.33-2.9-2.925-2.9v1zm1.925 1.9c0 1.042-.87 1.9-1.925 1.9v1c1.595 0 2.925-1.292 2.925-2.9h-1zm-1.925 1.9h-5.475v1h5.475v-1zm-5.475 0a1.9 1.9 0 01-1.9-1.9h-1a2.9 2.9 0 002.9 2.9v-1zm-2.4-2.4h-3.125v1h3.125v-1zm-3.625.5a6.027 6.027 0 006.025 6.025v-1a5.027 5.027 0 01-5.025-5.025h-1zm6.025 6.025h5.475v-1h-5.475v1zm5.475 0a6.027 6.027 0 006.025-6.025h-1a5.027 5.027 0 01-5.025 5.025v1zm6.025-6.025a6.037 6.037 0 00-1.362-3.816l-.775.632a5.038 5.038 0 011.137 3.184h1zm-1.396-3.854c-.02-.019-.037-.04-.07-.079-.03-.035-.074-.09-.13-.146l-.707.708c.019.019.036.04.07.079.029.035.074.09.13.146l.707-.708zm-.184-.207a5.99 5.99 0 00-4.445-1.964v1a4.99 4.99 0 013.705 1.636l.74-.672zm-4.445-1.964h-6.3v1h6.3v-1zm-6.3 0c-.599 0-1.1-.501-1.1-1.1h-1c0 1.151.95 2.1 2.1 2.1v-1zm-1.1-1.1v-.1h-1v.1h1zm0-.1c0-.599.501-1.1 1.1-1.1v-1c-1.15 0-2.1.949-2.1 2.1h1zm1.1-1.1h7.1v-1h-7.1v1zm7.1 0c.6 0 1.1.501 1.1 1.1h1c0-1.151-.949-2.1-2.1-2.1v1zm1.1 1.1v.1h1v-.1h-1zm.504.6l3.125-.025-.008-1-3.125.025.008 1zM52.205-58c-5.101 0-9.25 4.149-9.25 9.25h1c0-4.549 3.701-8.25 8.25-8.25v-1zm-9.25 9.25c0 5.101 4.149 9.25 9.25 9.25v-1c-4.549 0-8.25-3.701-8.25-8.25h-1zm9.25 9.25c5.101 0 9.25-4.149 9.25-9.25h-1c0 4.549-3.701 8.25-8.25 8.25v1zm9.25-9.25c0-5.101-4.149-9.25-9.25-9.25v1c4.549 0 8.25 3.701 8.25 8.25h1zm-9.25 5.125a5.133 5.133 0 01-5.125-5.125h-1a6.133 6.133 0 006.125 6.125v-1zM47.08-48.75a5.133 5.133 0 015.125-5.125v-1a6.133 6.133 0 00-6.125 6.125h1zm5.125-5.125a5.133 5.133 0 015.125 5.125h1a6.134 6.134 0 00-6.125-6.125v1zm5.125 5.125a5.133 5.133 0 01-5.125 5.125v1a6.134 6.134 0 006.125-6.125h-1zm22.774-5.625v.5h.5v-.5h-.5zm0-3.125h.5v-.5h-.5v.5zm0 17.5v.5h.5v-.5h-.5zm0-3.125h.5v-.5h-.5v.5zm-8.75-10.75h8.75v-1h-8.75v1zm9.25-.5V-57.5h-1v3.125h1zm-.5-3.625h-8.75v1h8.75v-1zm-8.75 0c-5.101 0-9.25 4.149-9.25 9.25h1c0-4.549 3.701-8.25 8.25-8.25v-1zm-9.25 9.25c0 5.101 4.149 9.25 9.25 9.25v-1c-4.549 0-8.25-3.701-8.25-8.25h-1zm9.25 9.25h8.75v-1h-8.75v1zm9.25-.5v-3.125h-1V-40h1zm-.5-3.625h-8.75v1h8.75v-1zm-8.75 0a5.133 5.133 0 01-5.125-5.125h-1a6.134 6.134 0 006.125 6.125v-1zm-5.125-5.125a5.133 5.133 0 015.125-5.125v-1a6.134 6.134 0 00-6.125 6.125h1zM85.73-40v.5h.5v-.5h-.5zm0-17.5h.5v-.5h-.5v.5zm-3.125 0v-.5h-.5v.5h.5zm0 17.5h-.5v.5h.5v-.5zm3.625 0v-17.5h-1V-40h1zm-.5-18h-3.125v1h3.125v-1zm-3.625.5V-40h1v-17.5h-1zm.5 18h3.125v-1h-3.125v1zm20.865-3.625l-.445.227.445-.227zM96.145-57.5l.446-.227-.446-.874-.445.874.445.227zM88.82-43.125l.445.228v-.001l-.445-.227zM87.22-40l-.445-.228-.373.728h.818v-.5zm3.5 0v.5h.306l.14-.272L90.72-40zm1.6-3.125l.445.228-.445-.228zm3.825-7.5l.446-.227-.446-.873-.445.873.445.227zm3.825 7.5l-.445.227.445-.227zm1.6 3.125l-.445.228.139.272h.306v-.5zm3.5 0v.5h.818l-.373-.728-.445.228zm-1.154-3.352l-7.325-14.375-.891.454 7.325 14.375.891-.454zM95.7-57.727l-7.325 14.375.89.454 7.326-14.375-.891-.454zm-7.325 14.374l-1.6 3.125.89.456 1.6-3.125-.89-.456zM87.22-39.5h3.5v-1h-3.5v1zm3.945-.272l1.6-3.125-.89-.456-1.6 3.125.89.456zm1.6-3.126l3.826-7.5-.891-.454-3.825 7.5.89.454zm2.935-7.5l3.825 7.5.891-.454-3.825-7.5-.891.454zm3.825 7.5l1.6 3.126.89-.456-1.6-3.125-.89.456zm2.045 3.398h3.5v-1h-3.5v1zm3.945-.728l-1.6-3.125-.89.456 1.6 3.125.89-.456zm5.655-2.897l-.067.495.033.005h.033l.001-.5zm-2.125-2.125h-.5v.034l.005.034.495-.068zm0-12.225h.5v-.5h-.5v.5zm-3.125 0v-.5h-.5v.5h.5zm.575 14.375l.452-.215-.004-.009-.448.224zm2.525 2.55l-.223.447.223-.447zm11.325.575v.5h.5v-.5h-.5zm0-3.125h.5v-.499l-.498-.001-.002.5zm-9.107-.52a1.991 1.991 0 01-1.697-1.698l-.991.136a2.992 2.992 0 002.553 2.552l.135-.99zm-1.693-1.63v-12.225h-1v12.225h1zm-.5-12.725h-3.125v1h3.125v-1zm-3.625.5v11.925h1v-11.925h-1zm0 11.925c0 .953.219 1.854.628 2.674l.895-.448a4.93 4.93 0 01-.523-2.226h-1zm.624 2.665a6.048 6.048 0 002.753 2.782l.447-.894a5.042 5.042 0 01-2.297-2.318l-.903.43zm2.753 2.782c.819.41 1.72.628 2.673.628v-1a4.935 4.935 0 01-2.226-.522l-.447.894zm2.673.628h8.875v-1h-8.875v1zm9.375-.5V-43.1h-1v3.125h1zm-.498-3.625l-9.175-.025-.003 1 9.175.025.003-1zm5.617 3.6v.5h.5v-.5h-.5zm0-17.5h.5v-.5h-.5v.5zm-3.125 0v-.5h-.5v.5h.5zm0 17.5h-.5v.5h.5v-.5zm3.625 0v-17.5h-1V-40h1zm-.5-18h-3.125v1h3.125v-1zm-3.625.5V-40h1v-17.5h-1zm.5 18h3.125v-1h-3.125v1zm5.616-17.975v-.5h-.5v.5h.5zm0 3.125h-.5v.5h.5v-.5zm7.175 0h.5v-.5h-.5v.5zm0 14.375h-.5v.5h.5v-.5zm3.125 0v.5h.5v-.5h-.5zm0-14.375v-.5h-.5v.5h.5zm7.175 0v.5h.5v-.5h-.5zm0-3.125h.5v-.5h-.5v.5zm-17.975 0v3.125h1v-3.125h-1zm.5 3.625h7.175v-1h-7.175v1zm6.675-.5v14.375h1V-54.35h-1zm.5 14.875h3.125v-1h-3.125v1zm3.625-.5V-54.35h-1v14.375h1zm-.5-13.875h7.175v-1h-7.175v1zm7.675-.5v-3.125h-1v3.125h1zm-.5-3.625h-17.475v1h17.475v-1zm20.02 3.6v.5h.5v-.5h-.5zm0-3.125h.5v-.5h-.5v.5zm0 17.5v.5h.5v-.5h-.5zm0-3.125h.5v-.5h-.5v.5zm-14.375-4.9v-.5h-.5v.5h.5zm11.25 0v.5h.5v-.5h-.5zm0-3.125h.5v-.5h-.5v.5zm-11.25 0h-.5v.5h.5v-.5zm1.6-2.725h12.775v-1h-12.775v1zm13.275-.5V-57.5h-1v3.125h1zm-.5-3.625h-12.775v1h12.775v-1zm-12.775 0c-2.88 0-5.2 2.352-5.2 5.225h1c0-2.327 1.879-4.225 4.2-4.225v-1zm-5.2 5.225v8.05h1v-8.05h-1zm0 8.05c0 2.873 2.32 5.225 5.2 5.225v-1c-2.321 0-4.2-1.898-4.2-4.225h-1zm5.2 5.225h12.775v-1h-12.775v1zm13.275-.5v-3.125h-1V-40h1zm-.5-3.625h-12.775v1h12.775v-1zm-12.775 0c-.599 0-1.1-.501-1.1-1.1h-1c0 1.151.949 2.1 2.1 2.1v-1zm-1.1-1.1v-3.3h-1v3.3h1zm-.5-2.8h11.25v-1h-11.25v1zm11.75-.5v-3.125h-1v3.125h1zm-.5-3.625h-11.25v1h11.25v-1zm-10.75.5v-1.625h-1v1.625h1zm0-1.625c0-.599.501-1.1 1.1-1.1v-1c-1.151 0-2.1.949-2.1 2.1h1zm32.92.1l.004.5.496-.004v-.496h-.5zM169.295-50l.422-.268-.006-.01-.007-.009-.409.287zm.6.75l-.354.354.006.005.348-.359zm1.7 3.725h.5v-.5h-.5v.5zm-3.125 0v-.5h-.5v.5h.5zm15.275-3.5l.387-.316-.016-.02-.018-.018-.353.354zm-.2-.225l-.37.336.008.01.008.008.354-.354zm-1.675-3.4h-.5v.504l.504-.004-.004-.5zm3.625-.025v-.1h-1v.1h1zm0-.1A5.237 5.237 0 00180.27-58v1a4.237 4.237 0 014.225 4.225h1zM180.27-58h-7.1v1h7.1v-1zm-7.1 0c-2.88 0-5.2 2.352-5.2 5.225h1c0-2.327 1.879-4.225 4.2-4.225v-1zm-5.2 5.225v.1h1v-.1h-1zm0 .1c0 1.1.33 2.126.915 2.962l.819-.574a4.147 4.147 0 01-.734-2.388h-1zm.903 2.943c.194.306.417.584.668.836l.707-.708a3.918 3.918 0 01-.531-.664l-.844.536zm.674.84a5.173 5.173 0 003.623 1.467v-1a4.174 4.174 0 01-2.927-1.184l-.696.718zm3.623 1.467h6.3v-1h-6.3v1zm6.3 0c1.055 0 1.925.858 1.925 1.9h1c0-1.608-1.331-2.9-2.925-2.9v1zm1.925 1.9c0 1.042-.87 1.9-1.925 1.9v1c1.594 0 2.925-1.292 2.925-2.9h-1zm-1.925 1.9h-5.475v1h5.475v-1zm-5.475 0a1.9 1.9 0 01-1.9-1.9h-1a2.9 2.9 0 002.9 2.9v-1zm-2.4-2.4h-3.125v1h3.125v-1zm-3.625.5a6.027 6.027 0 006.025 6.025v-1a5.027 5.027 0 01-5.025-5.025h-1zm6.025 6.025h5.475v-1h-5.475v1zm5.475 0a6.027 6.027 0 006.025-6.025h-1a5.027 5.027 0 01-5.025 5.025v1zm6.025-6.025a6.04 6.04 0 00-1.363-3.816l-.775.632a5.037 5.037 0 011.138 3.184h1zm-1.397-3.854c-.019-.019-.036-.04-.069-.079-.03-.035-.075-.09-.131-.146l-.707.708c.019.019.037.04.07.079.029.035.074.09.13.146l.707-.708zm-.183-.207a5.99 5.99 0 00-4.445-1.964v1a4.99 4.99 0 013.705 1.636l.74-.672zm-4.445-1.964h-6.3v1h6.3v-1zm-6.3 0c-.599 0-1.1-.501-1.1-1.1h-1c0 1.151.949 2.1 2.1 2.1v-1zm-1.1-1.1v-.1h-1v.1h1zm0-.1c0-.599.501-1.1 1.1-1.1v-1c-1.151 0-2.1.949-2.1 2.1h1zm1.1-1.1h7.1v-1h-7.1v1zm7.1 0c.599 0 1.1.501 1.1 1.1h1c0-1.151-.949-2.1-2.1-2.1v1zm1.1 1.1v.1h1v-.1h-1zm.504.6l3.125-.025-.008-1-3.125.025.008 1zM57.108-18.125l-.446.227.446-.227zM49.783-32.5l.445-.227-.445-.874-.446.874.446.227zm-7.325 14.375l.445.228v-.001l-.445-.227zM40.858-15l-.445-.228-.373.728h.818v-.5zm3.5 0v.5h.306l.139-.272-.445-.228zm1.6-3.125l.445.228-.445-.228zm3.825-7.5l.445-.227-.445-.873-.446.873.446.227zm3.825 7.5l-.445.227.445-.227zm1.6 3.125l-.445.228.14.272h.305v-.5zm3.5 0v.5h.818l-.373-.728-.445.228zm-1.155-3.352l-7.325-14.375-.89.454 7.324 14.375.891-.454zm-8.216-14.375l-7.325 14.375.891.454 7.325-14.375-.89-.454zm-7.324 14.374l-1.6 3.125.89.456 1.6-3.125-.89-.456zM40.858-14.5h3.5v-1h-3.5v1zm3.945-.272l1.6-3.125-.89-.456-1.6 3.125.89.456zm1.6-3.126l3.825-7.5-.89-.454-3.825 7.5.89.454zm2.934-7.5l3.825 7.5.891-.454-3.825-7.5-.89.454zm3.826 7.5l1.6 3.126.89-.456-1.6-3.125-.89.456zm2.045 3.398h3.5v-1h-3.5v1zm3.945-.728l-1.6-3.125-.89.456 1.6 3.125.89-.456zm12.69-7.847l-.053-.497-.718.075.323.646.447-.224zm1.35-.375l-.21-.454-.004.002.213.452zm1.374-7.625l-.353.354.353-.354zM60.192-32.45v-.5h-.5v.5h.5zm0 17.5h-.5v.5h.5v-.5zm3.125 0v.5h.5v-.5h-.5zm0-8.05v-.5h-.5v.5h.5zm5.775 1.5l.448-.224-.01-.019-.011-.018-.427.261zm.075.15l-.447.224.002.004.445-.228zm1.675 3.275l-.445.228.445-.228zm1.6 3.125l-.445.228.14.272h.305v-.5zm3.5 0v.5h.818l-.373-.728-.445.228zm-1.6-3.125l-.447.224.002.004.445-.228zM63.317-26.1h-.5v.502l.502-.002-.002-.5zm0-3.225v-.5h-.5v.5h.5zm9.05.45l-.353.354.353-.354zm-.475 2.6l-.2-.459-.011.006-.012.006.223.447zm-.65.15v-.5h-.001l.001.5zm.653 3.547a4.676 4.676 0 001.51-.42l-.426-.904a3.681 3.681 0 01-1.19.33l.106.994zm1.507-.418a5.24 5.24 0 003.04-4.754h-1a4.24 4.24 0 01-2.46 3.846l.42.908zm3.04-4.754a5.185 5.185 0 00-1.521-3.679l-.707.708a4.185 4.185 0 011.228 2.971h1zm-1.521-3.679a5.185 5.185 0 00-3.679-1.521v1c1.163 0 2.212.469 2.972 1.229l.707-.708zm-3.679-1.521h-11.05v1h11.05v-1zm-11.55.5v17.5h1v-17.5h-1zm.5 18h3.125v-1h-3.125v1zm3.625-.5V-23h-1v8.05h1zm-.5-7.55h3.125v-1h-3.125v1zm3.125 0c.94 0 1.759.5 2.224 1.26l.853-.52a3.598 3.598 0 00-3.077-1.74v1zm2.203 1.224l.075.15.895-.448-.075-.15-.895.448zm.077.154l1.675 3.275.89-.456-1.675-3.275-.89.456zm1.675 3.275l1.6 3.125.89-.456-1.6-3.125-.89.456zm2.045 3.397h3.5v-1h-3.5v1zm3.945-.728l-1.6-3.125-.89.456 1.6 3.125.89-.456zm-1.597-3.12l-2.5-5-.895.447 2.5 5 .895-.448zM63.817-26.1v-3.225h-1v3.225h1zm-.5-2.725h7.925v-1h-7.925v1zm7.925 0c.388 0 .642.174.772.304l.707-.708a2.075 2.075 0 00-1.479-.596v1zm.772.304c.12.12.328.4.328.796h1a2.15 2.15 0 00-.621-1.504l-.707.708zm.328.796c0 .427-.257.821-.65.992l.4.916a2.088 2.088 0 001.25-1.908h-1zm-.673 1.003a.96.96 0 01-.427.097v1c.298 0 .6-.066.874-.203l-.447-.894zm-.428.097l-7.925.025.003 1 7.925-.025-.003-1zm24.738-2.75v.5h.5v-.5h-.5zm0-3.125h.5v-.5h-.5v.5zm0 17.5v.5h.5v-.5h-.5zm0-3.125h.5v-.5h-.5v.5zm-14.375-4.9v-.5h-.5v.5h.5zm11.25 0v.5h.5v-.5h-.5zm0-3.125h.5v-.5h-.5v.5zm-11.25 0h-.5v.5h.5v-.5zm1.6-2.725h12.775v-1H83.204v1zm13.275-.5V-32.5h-1v3.125h1zm-.5-3.625H83.204v1h12.775v-1zm-12.775 0c-2.88 0-5.2 2.352-5.2 5.225h1c0-2.327 1.88-4.225 4.2-4.225v-1zm-5.2 5.225v8.05h1v-8.05h-1zm0 8.05c0 2.873 2.32 5.225 5.2 5.225v-1c-2.32 0-4.2-1.898-4.2-4.225h-1zm5.2 5.225h12.775v-1H83.204v1zm13.275-.5v-3.125h-1V-15h1zm-.5-3.625H83.204v1h12.775v-1zm-12.775 0c-.599 0-1.1-.501-1.1-1.1h-1c0 1.151.949 2.1 2.1 2.1v-1zm-1.1-1.1v-3.3h-1v3.3h1zm-.5-2.8h11.25v-1h-11.25v1zm11.75-.5v-3.125h-1v3.125h1zm-.5-3.625h-11.25v1h11.25v-1zm-10.75.5v-1.625h-1v1.625h1zm0-1.625c0-.599.501-1.1 1.1-1.1v-1c-1.151 0-2.1.949-2.1 2.1h1zm42.928-4.725l.004-.5-.504-.004v.504h.5zm0 11.15l-.306.396.806.62v-1.016h-.5zm-11.25-8.675l.305-.396h-.001l-.304.396zm-3.125-2.4l.304-.397-.804-.617v1.014h.5zm0 17.45h-.5v.5h.5v-.5zm3.125 0v.5h.5v-.5h-.5zm0-11.075l.305-.396-.805-.62v1.016h.5zm11.25 8.675l-.306.396h.001l.305-.396zm3.125 2.4l-.305.396.805.618v-1.014h-.5zm0-17.5h.5v-.496l-.496-.004-.004.5zm-3.625-.025v11.15h1V-32.5h-1zm.805 10.754l-11.25-8.675-.611.792 11.25 8.675.611-.792zm-11.251-8.676l-3.125-2.4-.609.794 3.125 2.4.609-.794zm-3.929-2.003v17.45h1v-17.45h-1zm.5 17.95h3.125v-1h-3.125v1zm3.625-.5V-26.05h-1v11.075h1zm-.806-10.679l11.25 8.675.611-.792-11.25-8.675-.611.792zm11.251 8.675l3.125 2.4.609-.792-3.125-2.4-.609.793zm3.93 2.004v-17.5h-1v17.5h1zm-.496-18L125.036-33l-.008 1 3.125.025.008-1zM130.677-15h-.5v.5h.5v-.5zm3.1 0v.5h.5v-.5h-.5zm0-8.025v-.5h-.5v.5h.5zm11.275 0v.5h.5v-.5h-.5zm0-3.125h.5v-.5h-.5v.5zm-11.25 0h-.5v.5h.5v-.5zm14.375-3.225v.5h.5v-.5h-.5zm0-3.125h.5v-.5h-.5v.5zm-12.8-.5c-2.88 0-5.2 2.352-5.2 5.225h1c0-2.327 1.879-4.225 4.2-4.225v-1zm-5.2 5.225V-15h1v-12.775h-1zm.5 13.275h3.1v-1h-3.1v1zm3.6-.5v-8.025h-1V-15h1zm-.5-7.525h11.275v-1h-11.275v1zm11.775-.5v-3.125h-1v3.125h1zm-.5-3.625h-11.25v1h11.25v-1zm-10.75.5v-1.625h-1v1.625h1zm0-1.625c0-.599.501-1.1 1.1-1.1v-1c-1.151 0-2.1.949-2.1 2.1h1zm1.1-1.1h12.775v-1h-12.775v1zm13.275-.5V-32.5h-1v3.125h1zm-.5-3.625h-12.8v1h12.8v-1zm2.47.525v-.5h-.5v.5h.5zm0 3.125h-.5v.5h.5v-.5zm7.175 0h.5v-.5h-.5v.5zm0 14.375h-.5v.5h.5v-.5zm3.125 0v.5h.5v-.5h-.5zm0-14.375v-.5h-.5v.5h.5zm7.175 0v.5h.5v-.5h-.5zm0-3.125h.5v-.5h-.5v.5zm-17.975 0v3.125h1v-3.125h-1zm.5 3.625h7.175v-1h-7.175v1zm6.675-.5v14.375h1V-29.35h-1zm.5 14.875h3.125v-1h-3.125v1zm3.625-.5V-29.35h-1v14.375h1zm-.5-13.875h7.175v-1h-7.175v1zm7.675-.5v-3.125h-1v3.125h1zm-.5-3.625h-17.475v1h17.475v-1zM18.19-4.375v.5h.5v-.5h-.5zm0-3.125h.5V-8h-.5v.5zm0 17.5v.5h.5V10h-.5zm0-3.125h.5v-.5h-.5v.5zM9.44-3.875h8.75v-1H9.44v1zm9.25-.5V-7.5h-1v3.125h1zM18.19-8H9.44v1h8.75v-1zM9.44-8C4.339-8 .19-3.851.19 1.25h1C1.19-3.299 4.89-7 9.44-7v-1zM.19 1.25c0 5.101 4.149 9.25 9.25 9.25v-1c-4.549 0-8.25-3.701-8.25-8.25h-1zm9.25 9.25h8.75v-1H9.44v1zm9.25-.5V6.875h-1V10h1zm-.5-3.625H9.44v1h8.75v-1zm-8.75 0A5.133 5.133 0 014.315 1.25h-1A6.133 6.133 0 009.44 7.375v-1zM4.315 1.25A5.133 5.133 0 019.44-3.875v-1A6.133 6.133 0 003.315 1.25h1zM27.742-8c-5.1 0-9.25 4.149-9.25 9.25h1c0-4.549 3.701-8.25 8.25-8.25v-1zm-9.25 9.25c0 5.101 4.15 9.25 9.25 9.25v-1c-4.549 0-8.25-3.701-8.25-8.25h-1zm9.25 9.25c5.101 0 9.25-4.149 9.25-9.25h-1c0 4.549-3.7 8.25-8.25 8.25v1zm9.25-9.25c0-5.101-4.149-9.25-9.25-9.25v1c4.55 0 8.25 3.701 8.25 8.25h1zm-9.25 5.125a5.133 5.133 0 01-5.125-5.125h-1a6.133 6.133 0 006.125 6.125v-1zM22.617 1.25a5.133 5.133 0 015.125-5.125v-1a6.133 6.133 0 00-6.125 6.125h1zm5.125-5.125a5.134 5.134 0 015.125 5.125h1a6.134 6.134 0 00-6.125-6.125v1zm5.125 5.125a5.134 5.134 0 01-5.125 5.125v1a6.134 6.134 0 006.125-6.125h-1zm10.774 5.625l-.067.495.032.005h.034l.001-.5zM41.516 4.75h-.5v.034l.005.034.495-.068zm0-12.225h.5v-.5h-.5v.5zm-3.125 0v-.5h-.5v.5h.5zM38.966 6.9l.451-.215-.004-.009-.447.224zm2.525 2.55l-.224.447.224-.447zm11.325.575v.5h.5v-.5h-.5zm0-3.125h.5v-.499l-.498-.001-.002.5zm-9.107-.52a1.993 1.993 0 01-1.698-1.698l-.99.136a2.993 2.993 0 002.553 2.552l.135-.99zm-1.693-1.63V-7.475h-1V4.75h1zm-.5-12.725h-3.125v1h3.125v-1zm-3.625.5V4.45h1V-7.475h-1zm0 11.925c0 .953.218 1.855.628 2.674l.894-.448a4.937 4.937 0 01-.522-2.226h-1zm.624 2.665a6.044 6.044 0 002.752 2.782l.448-.894a5.045 5.045 0 01-2.298-2.318l-.902.43zm2.752 2.782c.82.41 1.721.628 2.674.628v-1a4.936 4.936 0 01-2.226-.522l-.448.894zm2.674.628h8.875v-1h-8.875v1zm9.375-.5V6.9h-1v3.125h1zM52.818 6.4l-9.175-.025-.003 1 9.175.025.003-1zm7.742.475l-.068.495.033.005h.034l.001-.5zM58.435 4.75h-.5v.034l.005.034.495-.068zm0-12.225h.5v-.5h-.5v.5zm-3.125 0v-.5h-.5v.5h.5zM55.885 6.9l.451-.215-.004-.009-.447.224zm2.525 2.55l-.223.447.223-.447zm11.325.575v.5h.5v-.5h-.5zm0-3.125h.5v-.499l-.499-.001v.5zm-9.107-.52a1.993 1.993 0 01-1.697-1.698l-.991.136a2.993 2.993 0 002.553 2.552l.135-.99zm-1.693-1.63V-7.475h-1V4.75h1zm-.5-12.725H55.31v1h3.125v-1zm-3.625.5V4.45h1V-7.475h-1zm0 11.925c0 .953.218 1.855.628 2.674l.894-.448a4.935 4.935 0 01-.522-2.226h-1zm.624 2.665a6.045 6.045 0 002.753 2.782l.447-.894a5.045 5.045 0 01-2.298-2.318l-.902.43zm2.753 2.782c.819.41 1.72.628 2.673.628v-1a4.936 4.936 0 01-2.226-.522l-.447.894zm2.673.628h8.875v-1H60.86v1zm9.375-.5V6.9h-1v3.125h1zM69.736 6.4l-9.175-.025-.002 1 9.175.025.002-1zM89.73-4.375v.5h.5v-.5h-.5zm0-3.125h.5V-8h-.5v.5zm0 17.5v.5h.5V10h-.5zm0-3.125h.5v-.5h-.5v.5zm-14.375-4.9v-.5h-.5v.5h.5zm11.25 0v.5h.5v-.5h-.5zm0-3.125h.5v-.5h-.5v.5zm-11.25 0h-.5v.5h.5v-.5zm1.6-2.725H89.73v-1H76.954v1zm13.275-.5V-7.5h-1v3.125h1zM89.729-8H76.954v1h12.775v-1zM76.954-8c-2.88 0-5.2 2.352-5.2 5.225h1c0-2.327 1.88-4.225 4.2-4.225v-1zm-5.2 5.225v8.05h1v-8.05h-1zm0 8.05c0 2.873 2.32 5.225 5.2 5.225v-1c-2.32 0-4.2-1.898-4.2-4.225h-1zm5.2 5.225h12.775v-1H76.954v1zm13.275-.5V6.875h-1V10h1zm-.5-3.625H76.954v1h12.775v-1zm-12.775 0c-.599 0-1.1-.501-1.1-1.1h-1c0 1.151.949 2.1 2.1 2.1v-1zm-1.1-1.1v-3.3h-1v3.3h1zm-.5-2.8h11.25v-1h-11.25v1zm11.75-.5V-1.15h-1v3.125h1zm-.5-3.625h-11.25v1h11.25v-1zm-10.75.5v-1.625h-1v1.625h1zm0-1.625c0-.599.501-1.1 1.1-1.1v-1c-1.151 0-2.1.949-2.1 2.1h1zm32.253-1.6v.5h.5v-.5h-.5zm0-3.125h.5V-8h-.5v.5zm0 17.5v.5h.5V10h-.5zm0-3.125h.5v-.5h-.5v.5zm-8.75-10.75h8.75v-1h-8.75v1zm9.25-.5V-7.5h-1v3.125h1zm-.5-3.625h-8.75v1h8.75v-1zm-8.75 0c-5.101 0-9.25 4.149-9.25 9.25h1c0-4.549 3.701-8.25 8.25-8.25v-1zm-9.25 9.25c0 5.101 4.149 9.25 9.25 9.25v-1c-4.549 0-8.25-3.701-8.25-8.25h-1zm9.25 9.25h8.75v-1h-8.75v1zm9.25-.5V6.875h-1V10h1zm-.5-3.625h-8.75v1h8.75v-1zm-8.75 0a5.134 5.134 0 01-5.125-5.125h-1a6.134 6.134 0 006.125 6.125v-1zM94.232 1.25a5.134 5.134 0 015.125-5.125v-1a6.134 6.134 0 00-6.125 6.125h1zm16.376-8.725v-.5h-.5v.5h.5zm0 3.125h-.5v.5h.5v-.5zm7.175 0h.5v-.5h-.5v.5zm0 14.375h-.5v.5h.5v-.5zm3.125 0v.5h.5v-.5h-.5zm0-14.375v-.5h-.5v.5h.5zm7.175 0v.5h.5v-.5h-.5zm0-3.125h.5v-.5h-.5v.5zm-17.975 0v3.125h1v-3.125h-1zm.5 3.625h7.175v-1h-7.175v1zm6.675-.5v14.375h1V-4.35h-1zm.5 14.875h3.125v-1h-3.125v1zm3.625-.5V-4.35h-1v14.375h1zm-.5-13.875h7.175v-1h-7.175v1zm7.675-.5v-3.125h-1v3.125h1zm-.5-3.625h-17.475v1h17.475v-1zM133.728 10v.5h.5V10h-.5zm0-17.5h.5V-8h-.5v.5zm-3.125 0V-8h-.5v.5h.5zm0 17.5h-.5v.5h.5V10zm3.625 0V-7.5h-1V10h1zm-.5-18h-3.125v1h3.125v-1zm-3.625.5V10h1V-7.5h-1zm.5 18h3.125v-1h-3.125v1zM151.218-.225l-.418-.274-.272.415.413.275.277-.416zm-15-7.275V-8h-.5v.5h.5zm0 17.5h-.5v.5h.5V10zm3.125-14.375v-.5h-.5v.5h.5zm0 3.2h-.5v.5h.5v-.5zm8.8 8.05v.5h.5v-.5h-.5zm-8.8 0h-.5v.5h.5v-.5zm0-4.925v-.5h-.5v.5h.5zm8.8 4.9v-.5h-.5v.5h.5zm3.493-6.801a5.123 5.123 0 00.832-2.824h-1a4.13 4.13 0 01-.668 2.276l.836.548zm.832-2.824A5.237 5.237 0 00147.243-8v1a4.237 4.237 0 014.225 4.225h1zM147.243-8h-11.025v1h11.025v-1zm-11.525.5V10h1V-7.5h-1zm.5 18h11.925v-1h-11.925v1zm11.925 0a6.08 6.08 0 006.075-6.075h-1a5.08 5.08 0 01-5.075 5.075v1zm6.075-6.075a6.077 6.077 0 00-2.722-5.066l-.555.832a5.076 5.076 0 012.277 4.234h1zm-14.875-8.3h7.925v-1h-7.925v1zm7.925 0c.599 0 1.1.501 1.1 1.1h1c0-1.151-.949-2.1-2.1-2.1v1zm1.1 1.1c0 .599-.501 1.1-1.1 1.1v1c1.151 0 2.1-.949 2.1-2.1h-1zm-1.1 1.1h-7.925v1h7.925v-1zm-7.425.5v-3.2h-1v3.2h1zm8.3 7.55h-8.8v1h8.8v-1zm-8.3.5V1.95h-1v4.925h1zm-.5-4.425h8.8v-1h-8.8v1zm8.8 0c1.074 0 1.95.876 1.95 1.95h1a2.954 2.954 0 00-2.95-2.95v1zm1.95 1.95c0 1.074-.876 1.95-1.95 1.95v1a2.954 2.954 0 002.95-2.95h-1zm-2.45 2.45v.025h1V6.85h-1zm13.21.025l-.068.495.033.005h.034l.001-.5zm-2.125-2.125h-.5v.034l.005.034.495-.068zm0-12.225h.5v-.5h-.5v.5zm-3.125 0v-.5h-.5v.5h.5zm.575 14.375l.451-.215-.004-.009-.447.224zm2.525 2.55l-.224.447.224-.447zm11.325.575v.5h.5v-.5h-.5zm0-3.125h.5v-.499l-.499-.001-.001.5zm-9.107-.52a1.993 1.993 0 01-1.698-1.698l-.99.136a2.992 2.992 0 002.552 2.552l.136-.99zm-1.693-1.63V-7.475h-1V4.75h1zm-.5-12.725h-3.125v1h3.125v-1zm-3.625.5V4.45h1V-7.475h-1zm0 11.925c0 .953.218 1.855.628 2.674l.894-.448a4.942 4.942 0 01-.522-2.226h-1zm.624 2.665a6.04 6.04 0 002.752 2.782l.448-.894a5.049 5.049 0 01-2.298-2.318l-.902.43zm2.752 2.782a5.94 5.94 0 002.674.628v-1a4.935 4.935 0 01-2.226-.522l-.448.894zm2.674.628h8.875v-1h-8.875v1zm9.375-.5V6.9h-1v3.125h1zm-.499-3.625l-9.175-.025-.002 1 9.175.025.002-1zm19.993-10.775v.5h.5v-.5h-.5zm0-3.125h.5V-8h-.5v.5zm0 17.5v.5h.5V10h-.5zm0-3.125h.5v-.5h-.5v.5zm-14.375-4.9v-.5h-.5v.5h.5zm11.25 0v.5h.5v-.5h-.5zm0-3.125h.5v-.5h-.5v.5zm-11.25 0h-.5v.5h.5v-.5zm1.6-2.725h12.775v-1h-12.775v1zm13.275-.5V-7.5h-1v3.125h1zm-.5-3.625h-12.775v1h12.775v-1zm-12.775 0c-2.88 0-5.2 2.352-5.2 5.225h1c0-2.327 1.88-4.225 4.2-4.225v-1zm-5.2 5.225v8.05h1v-8.05h-1zm0 8.05c0 2.873 2.32 5.225 5.2 5.225v-1c-2.32 0-4.2-1.898-4.2-4.225h-1zm5.2 5.225h12.775v-1h-12.775v1zm13.275-.5V6.875h-1V10h1zm-.5-3.625h-12.775v1h12.775v-1zm-12.775 0c-.599 0-1.1-.501-1.1-1.1h-1c0 1.151.949 2.1 2.1 2.1v-1zm-1.1-1.1v-3.3h-1v3.3h1zm-.5-2.8h11.25v-1h-11.25v1zm11.75-.5V-1.15h-1v3.125h1zm-.5-3.625h-11.25v1h11.25v-1zm-10.75.5v-1.625h-1v1.625h1zm0-1.625c0-.599.501-1.1 1.1-1.1v-1c-1.151 0-2.1.949-2.1 2.1h1zm32.92.1l.004.5.496-.004v-.496h-.5zM193.367 0l.422-.268-.006-.01-.006-.009-.41.287zm.6.75l-.354.354.006.005.348-.359zm1.7 3.725h.5v-.5h-.5v.5zm-3.125 0v-.5h-.5v.5h.5zm15.275-3.5l.388-.316-.016-.02-.018-.018-.354.354zm-.2-.225l-.37.336.008.01.009.008.353-.354zm-1.675-3.4h-.5v.504l.504-.004-.004-.5zm3.625-.025v-.1h-1v.1h1zm0-.1A5.237 5.237 0 00204.342-8v1a4.237 4.237 0 014.225 4.225h1zM204.342-8h-7.1v1h7.1v-1zm-7.1 0c-2.879 0-5.2 2.352-5.2 5.225h1c0-2.327 1.88-4.225 4.2-4.225v-1zm-5.2 5.225v.1h1v-.1h-1zm0 .1c0 1.1.331 2.126.915 2.962l.82-.574a4.147 4.147 0 01-.735-2.388h-1zm.903 2.943c.194.305.417.584.669.836l.707-.708a3.875 3.875 0 01-.532-.664l-.844.536zm.674.84a5.173 5.173 0 003.623 1.467v-1a4.174 4.174 0 01-2.927-1.184l-.696.718zm3.623 1.467h6.3v-1h-6.3v1zm6.3 0c1.056 0 1.925.858 1.925 1.9h1c0-1.608-1.331-2.9-2.925-2.9v1zm1.925 1.9c0 1.042-.869 1.9-1.925 1.9v1c1.594 0 2.925-1.292 2.925-2.9h-1zm-1.925 1.9h-5.475v1h5.475v-1zm-5.475 0a1.9 1.9 0 01-1.9-1.9h-1a2.9 2.9 0 002.9 2.9v-1zm-2.4-2.4h-3.125v1h3.125v-1zm-3.625.5a6.027 6.027 0 006.025 6.025v-1a5.027 5.027 0 01-5.025-5.025h-1zm6.025 6.025h5.475v-1h-5.475v1zm5.475 0a6.027 6.027 0 006.025-6.025h-1a5.027 5.027 0 01-5.025 5.025v1zm6.025-6.025a6.038 6.038 0 00-1.362-3.816l-.775.632a5.042 5.042 0 011.137 3.184h1zM208.171.621a1.242 1.242 0 01-.07-.079c-.03-.035-.074-.09-.13-.146l-.707.708c.019.019.036.04.069.079.03.035.075.09.131.146l.707-.708zm-.184-.207a5.99 5.99 0 00-4.445-1.964v1a4.99 4.99 0 013.705 1.636l.74-.672zm-4.445-1.964h-6.3v1h6.3v-1zm-6.3 0c-.599 0-1.1-.501-1.1-1.1h-1c0 1.151.949 2.1 2.1 2.1v-1zm-1.1-1.1v-.1h-1v.1h1zm0-.1c0-.599.501-1.1 1.1-1.1v-1c-1.151 0-2.1.949-2.1 2.1h1zm1.1-1.1h7.1v-1h-7.1v1zm7.1 0c.599 0 1.1.501 1.1 1.1h1c0-1.151-.949-2.1-2.1-2.1v1zm1.1 1.1v.1h1v-.1h-1zm.504.6l3.125-.025-.008-1-3.125.025.008 1z" fill="url(#a)"/><defs><linearGradient id="a" x1="-35" y1="-59" x2="245" y2="-59" gradientUnits="userSpaceOnUse"><stop stop-color="#7F5CFF" stop-opacity="0"/><stop offset=".495" stop-color="#7F5CFF"/><stop offset="1" stop-color="#7F5CFF" stop-opacity="0"/></linearGradient></defs></svg>