<svg width="1048" height="36" fill="none" xmlns="http://www.w3.org/2000/svg"><path d="M33.355 9.65l.008 1 .992-.008V9.65h-1zM1.955 15l.844-.537-.012-.018-.013-.018-.82.573zm1.2 1.5l-.707.707.005.005.005.006.697-.718zm3.4 7.45h1v-1h-1v1zm-6.25 0v-1h-1v1h1zm30.55-7l.775-.632-.032-.04-.036-.035-.707.707zm-.4-.45l-.74.673.016.017.017.017.707-.707zm-3.35-6.8h-1v1.008l1.008-.008-.008-1zm7.25-.05v-.2h-2v.2h2zm0-.2C34.355 3.698 29.657-1 23.905-1v2c4.648 0 8.45 3.802 8.45 8.45h2zM23.905-1h-14.2v2h14.2v-2zm-14.2 0C3.945-1-.695 3.705-.695 9.45h2c0-4.655 3.76-8.45 8.4-8.45v-2zM-.695 9.45v.2h2v-.2h-2zm0 .2c0 2.202.661 4.253 1.83 5.923l1.64-1.146c-.931-1.33-1.47-2.979-1.47-4.777h-2zm1.806 5.887c.388.61.834 1.167 1.337 1.67l1.414-1.414a7.777 7.777 0 01-1.063-1.33L1.11 15.537zm1.347 1.68a10.347 10.347 0 007.247 2.933v-2a8.347 8.347 0 01-5.854-2.368l-1.393 1.436zm7.247 2.933h12.6v-2h-12.6v2zm12.6 0c2.111 0 3.85 1.716 3.85 3.8h2c0-3.216-2.661-5.8-5.85-5.8v2zm3.85 3.8c0 2.084-1.739 3.8-3.85 3.8v2c3.189 0 5.85-2.584 5.85-5.8h-2zm-3.85 3.8h-10.95v2h10.95v-2zm-10.95 0a3.801 3.801 0 01-3.8-3.8h-2c0 3.202 2.598 5.8 5.8 5.8v-2zm-4.8-4.8H.305v2h6.25v-2zm-7.25 1c0 6.652 5.398 12.05 12.05 12.05v-2c-5.548 0-10.05-4.502-10.05-10.05h-2zM11.355 36h10.95v-2h-10.95v2zm10.95 0c6.652 0 12.05-5.398 12.05-12.05h-2c0 5.548-4.502 10.05-10.05 10.05v2zm12.05-12.05c0-2.891-1.037-5.562-2.725-7.632l-1.55 1.264a10.075 10.075 0 012.275 6.368h2zm-2.793-7.707a2.3 2.3 0 01-.139-.158c-.06-.072-.15-.18-.261-.292l-1.414 1.414c.038.038.073.08.139.158.06.072.15.18.26.292l1.415-1.414zm-.367-.416a11.978 11.978 0 00-8.89-3.927v2a9.978 9.978 0 017.41 3.273l1.48-1.346zm-8.89-3.927h-12.6v2h12.6v-2zm-12.6 0a2.223 2.223 0 01-2.2-2.2h-2c0 2.302 1.898 4.2 4.2 4.2v-2zm-2.2-2.2v-.2h-2v.2h2zm0-.2c0-1.198 1.002-2.2 2.2-2.2v-2c-2.302 0-4.2 1.898-4.2 4.2h2zm2.2-2.2h14.2v-2h-14.2v2zm14.2 0c1.198 0 2.2 1.002 2.2 2.2h2c0-2.302-1.898-4.2-4.2-4.2v2zm2.2 2.2v.2h2v-.2h-2zm1.008 1.2l6.25-.05-.016-2-6.25.05.016 2zM54.64-1c-10.203 0-18.5 8.298-18.5 18.5h2c0-9.098 7.402-16.5 16.5-16.5v-2zm-18.5 18.5c0 10.202 8.297 18.5 18.5 18.5v-2c-9.098 0-16.5-7.402-16.5-16.5h-2zM54.64 36c10.202 0 18.5-8.298 18.5-18.5h-2c0 9.098-7.403 16.5-16.5 16.5v2zm18.5-18.5C73.14 7.298 64.843-1 54.64-1v2c9.098 0 16.5 7.402 16.5 16.5h2zm-18.5 10.25c-5.648 0-10.25-4.602-10.25-10.25h-2c0 6.752 5.498 12.25 12.25 12.25v-2zM44.39 17.5c0-5.648 4.602-10.25 10.25-10.25v-2c-6.752 0-12.25 5.498-12.25 12.25h2zM54.64 7.25c5.648 0 10.25 4.602 10.25 10.25h2c0-6.752-5.498-12.25-12.25-12.25v2zM64.89 17.5c0 5.648-4.603 10.25-10.25 10.25v2c6.752 0 12.25-5.498 12.25-12.25h-2zm45.547-11.25v1h1v-1h-1zm0-6.25h1v-1h-1v1zm0 35v1h1v-1h-1zm0-6.25h1v-1h-1v1zm-17.5-21.5h17.5v-2h-17.5v2zm18.5-1V0h-2v6.25h2zm-1-7.25h-17.5v2h17.5v-2zm-17.5 0c-10.202 0-18.5 8.298-18.5 18.5h2c0-9.098 7.403-16.5 16.5-16.5v-2zm-18.5 18.5c0 10.202 8.298 18.5 18.5 18.5v-2c-9.097 0-16.5-7.402-16.5-16.5h-2zm18.5 18.5h17.5v-2h-17.5v2zm18.5-1v-6.25h-2V35h2zm-1-7.25h-17.5v2h17.5v-2zm-17.5 0c-5.647 0-10.25-4.602-10.25-10.25h-2c0 6.752 5.498 12.25 12.25 12.25v-2zM82.689 17.5c0-5.648 4.603-10.25 10.25-10.25v-2c-6.752 0-12.25 5.498-12.25 12.25h2zM121.69 35v1h1v-1h-1zm0-35h1v-1h-1v1zm-6.25 0v-1h-1v1h1zm0 35h-1v1h1v-1zm7.25 0V0h-2v35h2zm-1-36h-6.25v2h6.25v-2zm-7.25 1v35h2V0h-2zm1 36h6.25v-2h-6.25v2zm41.731-7.25l-.891.454.001.002.89-.456zM142.521 0l.891-.454-.891-1.749-.891 1.749.891.454zm-14.65 28.75l.89.456.001-.002-.891-.454zm-3.2 6.25l-.89-.456-.746 1.456h1.636v-1zm7 0v1h.611l.279-.544-.89-.456zm3.2-6.25l.89.456.001-.002-.891-.454zm7.65-15l.891-.454-.891-1.747-.891 1.747.891.454zm7.65 15l-.891.454.001.002.89-.456zm3.2 6.25l-.89.456.278.544h.612v-1zm7 0v1h1.635l-.745-1.456-.89.456zm-2.309-6.704l-14.65-28.75-1.782.908 14.65 28.75 1.782-.908zM141.63-.454l-14.65 28.75 1.782.908 14.65-28.75-1.782-.908zm-14.649 28.748l-3.2 6.25 1.78.912 3.2-6.25-1.78-.912zM124.671 36h7v-2h-7v2zm7.89-.544l3.2-6.25-1.78-.912-3.2 6.25 1.78.912zm3.201-6.252l7.65-15-1.782-.908-7.65 15 1.782.908zm5.868-15l7.65 15 1.782-.908-7.65-15-1.782.908zm7.651 15.002l3.2 6.25 1.78-.912-3.2-6.25-1.78.912zm4.09 6.794h7v-2h-7v2zm7.89-1.456l-3.2-6.25-1.78.912 3.2 6.25 1.78-.912zm11.31-5.794l-.135.99.066.01h.067l.002-1zm-4.25-4.25h-1v.068l.009.067.991-.135zm0-24.45h1v-1h-1v1zm-6.25 0v-1h-1v1h1zm1.15 28.75l.903-.43-.004-.009-.004-.008-.895.447zm5.05 5.1l-.447.894.447-.894zm22.65 1.15v1h1v-1h-1zm0-6.25h1v-.997l-.997-.003-.003 1zm-18.215-1.04a3.985 3.985 0 01-3.394-3.395l-1.982.27a5.986 5.986 0 005.106 5.106l.27-1.982zm-3.385-3.26V.05h-2V24.5h2zm-1-25.45h-6.25v2h6.25v-2zm-7.25 1V23.9h2V.05h-2zm0 23.85c0 1.906.437 3.709 1.256 5.347l1.789-.894a9.871 9.871 0 01-1.045-4.453h-2zm1.248 5.33c1.149 2.409 3.113 4.368 5.505 5.564l.895-1.788c-2.008-1.004-3.644-2.645-4.595-4.637l-1.805.862zm5.505 5.564a11.87 11.87 0 005.347 1.256v-2a9.867 9.867 0 01-4.452-1.044l-.895 1.788zm5.347 1.256h17.75v-2h-17.75v2zm18.75-1V28.8h-2v6.25h2zm-.997-7.25l-18.35-.05-.005 2 18.35.05.005-2zm11.235 7.2v1h1v-1h-1zm0-35h1v-1h-1v1zm-6.25 0v-1h-1v1h1zm0 35h-1v1h1v-1zm7.25 0V0h-2v35h2zm-1-36h-6.25v2h6.25v-2zm-7.25 1v35h2V0h-2zm1 36h6.25v-2h-6.25v2zM207.14.05v-1h-1v1h1zm0 6.25h-1v1h1v-1zm14.35 0h1v-1h-1v1zm0 28.75h-1v1h1v-1zm6.25 0v1h1v-1h-1zm0-28.75v-1h-1v1h1zm14.35 0v1h1v-1h-1zm0-6.25h1v-1h-1v1zm-35.95 0V6.3h2V.05h-2zm1 7.25h14.35v-2h-14.35v2zm13.35-1v28.75h2V6.3h-2zm1 29.75h6.25v-2h-6.25v2zm7.25-1V6.3h-2v28.75h2zm-1-27.75h14.35v-2h-14.35v2zm15.35-1V.05h-2V6.3h2zm-1-7.25h-34.95v2h34.95v-2zm40.04 7.2v1h1v-1h-1zm0-6.25h1v-1h-1v1zm0 35v1h1v-1h-1zm0-6.25h1v-1h-1v1zm-28.75-9.8v-1h-1v1h1zm22.5 0v1h1v-1h-1zm0-6.25h1v-1h-1v1zm-22.5 0h-1v1h1v-1zm3.2-5.45h25.55v-2h-25.55v2zm26.55-1V0h-2v6.25h2zm-1-7.25h-25.55v2h25.55v-2zm-25.55 0c-5.759 0-10.4 4.705-10.4 10.45h2c0-4.655 3.759-8.45 8.4-8.45v-2zm-10.4 10.45v16.1h2V9.45h-2zm0 16.1c0 5.745 4.641 10.45 10.4 10.45v-2c-4.641 0-8.4-3.795-8.4-8.45h-2zM256.58 36h25.55v-2h-25.55v2zm26.55-1v-6.25h-2V35h2zm-1-7.25h-25.55v2h25.55v-2zm-25.55 0a2.222 2.222 0 01-2.2-2.2h-2c0 2.302 1.898 4.2 4.2 4.2v-2zm-2.2-2.2v-6.6h-2v6.6h2zm-1-5.6h22.5v-2h-22.5v2zm23.5-1V12.7h-2v6.25h2zm-1-7.25h-22.5v2h22.5v-2zm-21.5 1V9.45h-2v3.25h2zm0-3.25c0-1.198 1.002-2.2 2.2-2.2v-2c-2.302 0-4.2 1.898-4.2 4.2h2zm65.84.2l.008 1 .992-.008V9.65h-1zM288.82 15l.844-.537-.012-.018-.013-.018-.819.573zm1.2 1.5l-.707.707.005.005.006.006.696-.718zm3.4 7.45h1v-1h-1v1zm-6.25 0v-1h-1v1h1zm30.55-7l.775-.632-.032-.04-.036-.035-.707.707zm-.4-.45l-.74.673.016.017.017.017.707-.707zm-3.35-6.8h-1v1.008l1.008-.008-.008-1zm7.25-.05v-.2h-2v.2h2zm0-.2c0-5.752-4.698-10.45-10.45-10.45v2c4.648 0 8.45 3.802 8.45 8.45h2zM310.77-1h-14.2v2h14.2v-2zm-14.2 0c-5.759 0-10.4 4.705-10.4 10.45h2c0-4.655 3.759-8.45 8.4-8.45v-2zm-10.4 10.45v.2h2v-.2h-2zm0 .2c0 2.202.661 4.253 1.831 5.923l1.638-1.146c-.93-1.33-1.469-2.979-1.469-4.777h-2zm1.806 5.887a9.81 9.81 0 001.337 1.67l1.414-1.414a7.793 7.793 0 01-1.063-1.33l-1.688 1.074zm1.348 1.68a10.346 10.346 0 007.246 2.933v-2a8.346 8.346 0 01-5.853-2.368l-1.393 1.436zm7.246 2.933h12.6v-2h-12.6v2zm12.6 0c2.111 0 3.85 1.716 3.85 3.8h2c0-3.216-2.661-5.8-5.85-5.8v2zm3.85 3.8c0 2.084-1.739 3.8-3.85 3.8v2c3.189 0 5.85-2.584 5.85-5.8h-2zm-3.85 3.8h-10.95v2h10.95v-2zm-10.95 0a3.801 3.801 0 01-3.8-3.8h-2c0 3.202 2.598 5.8 5.8 5.8v-2zm-4.8-4.8h-6.25v2h6.25v-2zm-7.25 1c0 6.652 5.398 12.05 12.05 12.05v-2c-5.548 0-10.05-4.502-10.05-10.05h-2zM298.22 36h10.95v-2h-10.95v2zm10.95 0c6.652 0 12.05-5.398 12.05-12.05h-2c0 5.548-4.502 10.05-10.05 10.05v2zm12.05-12.05c0-2.891-1.037-5.562-2.725-7.632l-1.55 1.264a10.073 10.073 0 012.275 6.368h2zm-2.793-7.707a2.538 2.538 0 01-.139-.158 3.917 3.917 0 00-.261-.292l-1.414 1.414c.038.038.073.08.139.158.059.072.149.18.261.292l1.414-1.414zm-.367-.416a11.978 11.978 0 00-8.89-3.927v2a9.979 9.979 0 017.41 3.273l1.48-1.346zm-8.89-3.927h-12.6v2h12.6v-2zm-12.6 0a2.222 2.222 0 01-2.2-2.2h-2c0 2.302 1.898 4.2 4.2 4.2v-2zm-2.2-2.2v-.2h-2v.2h2zm0-.2c0-1.198 1.002-2.2 2.2-2.2v-2c-2.302 0-4.2 1.898-4.2 4.2h2zm2.2-2.2h14.2v-2h-14.2v2zm14.2 0c1.198 0 2.2 1.002 2.2 2.2h2c0-2.302-1.898-4.2-4.2-4.2v2zm2.2 2.2v.2h2v-.2h-2zm1.008 1.2l6.25-.05-.016-2-6.25.05.016 2zm66.093 18.05l-.891.454.001.002.89-.456zM365.421 0l.891-.454-.891-1.749-.891 1.749.891.454zm-14.65 28.75l.89.456.001-.002-.891-.454zm-3.2 6.25l-.89-.456-.745 1.456h1.635v-1zm7 0v1h.612l.278-.544-.89-.456zm3.2-6.25l.89.456.001-.002-.891-.454zm7.65-15l.891-.454-.891-1.747-.891 1.747.891.454zm7.65 15l-.891.454.001.002.89-.456zm3.2 6.25l-.89.456.279.544h.611v-1zm7 0v1h1.636l-.746-1.456-.89.456zm-2.309-6.704l-14.65-28.75-1.782.908 14.65 28.75 1.782-.908zM364.53-.454l-14.65 28.75 1.782.908 14.65-28.75-1.782-.908zm-14.649 28.748l-3.2 6.25 1.78.912 3.2-6.25-1.78-.912zM347.571 36h7v-2h-7v2zm7.89-.544l3.2-6.25-1.78-.912-3.2 6.25 1.78.912zm3.201-6.252l7.65-15-1.782-.908-7.65 15 1.782.908zm5.868-15l7.65 15 1.782-.908-7.65-15-1.782.908zm7.651 15.002l3.2 6.25 1.78-.912-3.2-6.25-1.78.912zm4.09 6.794h7v-2h-7v2zm7.89-1.456l-3.2-6.25-1.78.912 3.2 6.25 1.78-.912zM409.54 18.85l-.105-.995-1.435.152.646 1.29.894-.447zm2.7-.75l-.419-.908-.007.003.426.905zm2.75-15.25l-.707.707.707-.707zM386.24.1v-1h-1v1h1zm0 35h-1v1h1v-1zm6.25 0v1h1v-1h-1zm0-16.1v-1h-1v1h1zm11.55 3l.894-.447-.019-.038-.022-.037-.853.522zm.15.3l-.894.447.004.008.89-.455zm3.35 6.55l-.89.455.89-.455zm3.2 6.25l-.89.456.279.544h.611v-1zm7 0v1h1.635l-.745-1.456-.89.456zm-3.2-6.25l-.894.447.004.009.89-.456zM392.49 12.8h-1v1.003l1.003-.003-.003-1zm0-6.45v-1h-1v1h1zm18.1.9l-.707.707.707-.707zm-.95 5.2l-.399-.917-.024.01-.024.013.447.894zm-1.3.3v-1h-.003l.003 1zm1.305 7.095a9.348 9.348 0 003.021-.84l-.852-1.81a7.346 7.346 0 01-2.379.66l.21 1.99zm3.014-.837A10.478 10.478 0 00418.74 9.5h-2a8.48 8.48 0 01-4.919 7.692l.838 1.816zM418.74 9.5c0-2.875-1.162-5.477-3.043-7.357l-1.414 1.414A8.372 8.372 0 01416.74 9.5h2zm-3.043-7.357A10.37 10.37 0 00408.34-.9v2c2.325 0 4.423.938 5.943 2.457l1.414-1.414zM408.34-.9h-22.1v2h22.1v-2zm-23.1 1v35h2V.1h-2zm1 36h6.25v-2h-6.25v2zm7.25-1V19h-2v16.1h2zm-1-15.1h6.25v-2h-6.25v2zm6.25 0c1.881 0 3.517 1 4.447 2.521l1.706-1.043C403.623 19.4 401.359 18 398.74 18v2zm4.406 2.447l.15.3 1.788-.894-.15-.3-1.788.894zm.154.308l3.35 6.55 1.78-.91-3.35-6.55-1.78.91zm3.35 6.55l3.2 6.25 1.78-.91-3.2-6.25-1.78.91zm4.09 6.795h7v-2h-7v2zm7.89-1.456l-3.2-6.25-1.78.912 3.2 6.25 1.78-.912zm-3.196-6.241l-5-10-1.788.894 5 10 1.788-.894zM393.49 12.8V6.35h-2v6.45h2zm-1-5.45h15.85v-2h-15.85v2zm15.85 0c.775 0 1.283.347 1.543.607l1.414-1.414a4.149 4.149 0 00-2.957-1.193v2zm1.543.607a2.3 2.3 0 01.657 1.593h2a4.298 4.298 0 00-1.243-3.007l-1.414 1.414zm.657 1.593c0 .853-.515 1.642-1.299 1.983l.798 1.834a4.176 4.176 0 002.501-3.817h-2zm-1.347 2.006a1.919 1.919 0 01-.853.194v2c.595 0 1.2-.132 1.747-.406l-.894-1.788zm-.856.194l-15.85.05.006 2 15.85-.05-.006-2zm49.476-5.5v1h1v-1h-1zm0-6.25h1v-1h-1v1zm0 35v1h1v-1h-1zm0-6.25h1v-1h-1v1zm-28.75-9.8v-1h-1v1h1zm22.5 0v1h1v-1h-1zm0-6.25h1v-1h-1v1zm-22.5 0h-1v1h1v-1zm3.2-5.45h25.55v-2h-25.55v2zm26.55-1V0h-2v6.25h2zm-1-7.25h-25.55v2h25.55v-2zm-25.55 0c-5.759 0-10.4 4.705-10.4 10.45h2c0-4.655 3.76-8.45 8.4-8.45v-2zm-10.4 10.45v16.1h2V9.45h-2zm0 16.1c0 5.745 4.641 10.45 10.4 10.45v-2c-4.64 0-8.4-3.795-8.4-8.45h-2zm10.4 10.45h25.55v-2h-25.55v2zm26.55-1v-6.25h-2V35h2zm-1-7.25h-25.55v2h25.55v-2zm-25.55 0a2.223 2.223 0 01-2.2-2.2h-2c0 2.302 1.898 4.2 4.2 4.2v-2zm-2.2-2.2v-6.6h-2v6.6h2zm-1-5.6h22.5v-2h-22.5v2zm23.5-1V12.7h-2v6.25h2zm-1-7.25h-22.5v2h22.5v-2zm-21.5 1V9.45h-2v3.25h2zm0-3.25c0-1.198 1.003-2.2 2.2-2.2v-2c-2.302 0-4.2 1.898-4.2 4.2h2zM515.919 0l.008-1-1.008-.008V0h1zm0 22.3l-.611.792 1.611 1.242V22.3h-1zm-22.5-17.35l.611-.792-.002-.001-.609.793zm-6.25-4.8l.609-.793-1.609-1.236V.15h1zm0 34.9h-1v1h1v-1zm6.25 0v1h1v-1h-1zm0-22.15l.611-.792-1.611-1.242V12.9h1zm22.5 17.35l-.611.792.002.001.609-.793zm6.25 4.8l-.609.793 1.609 1.236V35.05h-1zm0-35h1v-.992l-.992-.008-.008 1zm-7.25-.05v22.3h2V0h-2zm1.611 21.508l-22.5-17.35-1.222 1.584 22.5 17.35 1.222-1.584zM494.028 4.157l-6.25-4.8L486.56.943l6.25 4.8 1.218-1.586zM486.169.15v34.9h2V.15h-2zm1 35.9h6.25v-2h-6.25v2zm7.25-1V12.9h-2v22.15h2zm-1.611-21.358l22.5 17.35 1.222-1.584-22.5-17.35-1.222 1.584zm22.502 17.351l6.25 4.8 1.218-1.586-6.25-4.8-1.218 1.586zm7.859 4.007v-35h-2v35h2zm-.992-36l-6.25-.05-.016 2 6.25.05.016-2zM527.209 35h-1v1h1v-1zm6.2 0v1h1v-1h-1zm0-16.05v-1h-1v1h1zm22.55 0v1h1v-1h-1zm0-6.25h1v-1h-1v1zm-22.5 0h-1v1h1v-1zm28.75-6.45v1h1v-1h-1zm0-6.25h1v-1h-1v1zm-25.6-1c-5.759 0-10.4 4.705-10.4 10.45h2c0-4.655 3.759-8.45 8.4-8.45v-2zm-10.4 10.45V35h2V9.45h-2zm1 26.55h6.2v-2h-6.2v2zm7.2-1V18.95h-2V35h2zm-1-15.05h22.55v-2h-22.55v2zm23.55-1V12.7h-2v6.25h2zm-1-7.25h-22.5v2h22.5v-2zm-21.5 1V9.45h-2v3.25h2zm0-3.25c0-1.198 1.002-2.2 2.2-2.2v-2c-2.302 0-4.2 1.898-4.2 4.2h2zm2.2-2.2h25.55v-2h-25.55v2zm26.55-1V0h-2v6.25h2zm-1-7.25h-25.6v2h25.6v-2zm4.94 1.05v-1h-1v1h1zm0 6.25h-1v1h1v-1zm14.35 0h1v-1h-1v1zm0 28.75h-1v1h1v-1zm6.25 0v1h1v-1h-1zm0-28.75v-1h-1v1h1zm14.35 0v1h1v-1h-1zm0-6.25h1v-1h-1v1zm-35.95 0V6.3h2V.05h-2zm1 7.25h14.35v-2h-14.35v2zm13.35-1v28.75h2V6.3h-2zm1 29.75h6.25v-2h-6.25v2zm7.25-1V6.3h-2v28.75h2zm-1-27.75h14.35v-2h-14.35v2zm15.35-1V.05h-2V6.3h2zm-1-7.25h-34.95v2h34.95v-2zm63.906 7.2v1h1v-1h-1zm0-6.25h1v-1h-1v1zm0 35v1h1v-1h-1zm0-6.25h1v-1h-1v1zm-17.5-21.5h17.5v-2h-17.5v2zm18.5-1V0h-2v6.25h2zm-1-7.25h-17.5v2h17.5v-2zm-17.5 0c-10.202 0-18.5 8.298-18.5 18.5h2c0-9.098 7.402-16.5 16.5-16.5v-2zm-18.5 18.5c0 10.202 8.298 18.5 18.5 18.5v-2c-9.098 0-16.5-7.402-16.5-16.5h-2zm18.5 18.5h17.5v-2h-17.5v2zm18.5-1v-6.25h-2V35h2zm-1-7.25h-17.5v2h17.5v-2zm-17.5 0c-5.648 0-10.25-4.602-10.25-10.25h-2c0 6.752 5.498 12.25 12.25 12.25v-2zm-10.25-10.25c0-5.648 4.602-10.25 10.25-10.25v-2c-6.752 0-12.25 5.498-12.25 12.25h2zM685.11-1c-10.203 0-18.5 8.298-18.5 18.5h2c0-9.098 7.402-16.5 16.5-16.5v-2zm-18.5 18.5c0 10.202 8.297 18.5 18.5 18.5v-2c-9.098 0-16.5-7.402-16.5-16.5h-2zm18.5 18.5c10.202 0 18.5-8.298 18.5-18.5h-2c0 9.098-7.403 16.5-16.5 16.5v2zm18.5-18.5c0-10.202-8.298-18.5-18.5-18.5v2c9.097 0 16.5 7.402 16.5 16.5h2zm-18.5 10.25c-5.648 0-10.25-4.602-10.25-10.25h-2c0 6.752 5.497 12.25 12.25 12.25v-2zM674.86 17.5c0-5.648 4.602-10.25 10.25-10.25v-2c-6.753 0-12.25 5.498-12.25 12.25h2zm10.25-10.25c5.647 0 10.25 4.602 10.25 10.25h2c0-6.752-5.498-12.25-12.25-12.25v2zm10.25 10.25c0 5.648-4.603 10.25-10.25 10.25v2c6.752 0 12.25-5.498 12.25-12.25h-2zm21.547 11.25l-.135.99.066.01h.066l.003-1zm-4.25-4.25h-1v.068l.009.067.991-.135zm0-24.45h1v-1h-1v1zm-6.25 0v-1h-1v1h1zm1.15 28.75l.903-.43-.004-.009-.004-.008-.895.447zm5.05 5.1l-.447.894.447-.894zm22.65 1.15v1h1v-1h-1zm0-6.25h1v-.997l-.997-.003-.003 1zm-18.215-1.04a3.985 3.985 0 01-3.394-3.395l-1.982.27a5.986 5.986 0 005.106 5.106l.27-1.982zm-3.385-3.26V.05h-2V24.5h2zm-1-25.45h-6.25v2h6.25v-2zm-7.25 1V23.9h2V.05h-2zm0 23.85c0 1.906.437 3.709 1.256 5.347l1.789-.894a9.871 9.871 0 01-1.045-4.453h-2zm1.248 5.33c1.149 2.409 3.113 4.368 5.505 5.564l.894-1.788c-2.007-1.004-3.644-2.645-4.594-4.637l-1.805.862zm5.505 5.564a11.87 11.87 0 005.347 1.256v-2a9.874 9.874 0 01-4.453-1.044l-.894 1.788zm5.347 1.256h17.75v-2h-17.75v2zm18.75-1V28.8h-2v6.25h2zm-.997-7.25l-18.35-.05-.006 2 18.351.05.005-2zm15.485.95l-.135.99.066.01h.066l.003-1zm-4.25-4.25h-1v.068l.009.067.991-.135zm0-24.45h1v-1h-1v1zm-6.25 0v-1h-1v1h1zm1.15 28.75l.903-.43-.004-.009-.004-.008-.895.447zm5.05 5.1l-.447.894.447-.894zm22.65 1.15v1h1v-1h-1zm0-6.25h1v-.997l-.997-.003-.003 1zm-18.215-1.04a3.985 3.985 0 01-3.394-3.395l-1.982.27a5.986 5.986 0 005.106 5.106l.27-1.982zm-3.385-3.26V.05h-2V24.5h2zm-1-25.45h-6.25v2h6.25v-2zm-7.25 1V23.9h2V.05h-2zm0 23.85c0 1.906.437 3.709 1.256 5.347l1.789-.894a9.871 9.871 0 01-1.045-4.453h-2zm1.248 5.33c1.149 2.409 3.113 4.368 5.505 5.564l.894-1.788c-2.008-1.004-3.644-2.645-4.594-4.637l-1.805.862zm5.505 5.564a11.87 11.87 0 005.347 1.256v-2a9.874 9.874 0 01-4.453-1.044l-.894 1.788zm5.347 1.256h17.75v-2h-17.75v2zm18.75-1V28.8h-2v6.25h2zm-.997-7.25l-18.35-.05-.006 2 18.35.05.006-2zm39.985-21.55v1h1v-1h-1zm0-6.25h1v-1h-1v1zm0 35v1h1v-1h-1zm0-6.25h1v-1h-1v1zm-28.75-9.8v-1h-1v1h1zm22.5 0v1h1v-1h-1zm0-6.25h1v-1h-1v1zm-22.5 0h-1v1h1v-1zm3.2-5.45h25.55v-2h-25.55v2zm26.55-1V0h-2v6.25h2zm-1-7.25h-25.55v2h25.55v-2zm-25.55 0c-5.759 0-10.4 4.705-10.4 10.45h2c0-4.655 3.759-8.45 8.4-8.45v-2zm-10.4 10.45v16.1h2V9.45h-2zm0 16.1c0 5.745 4.641 10.45 10.4 10.45v-2c-4.641 0-8.4-3.795-8.4-8.45h-2zm10.4 10.45h25.55v-2h-25.55v2zm26.55-1v-6.25h-2V35h2zm-1-7.25h-25.55v2h25.55v-2zm-25.55 0a2.222 2.222 0 01-2.2-2.2h-2c0 2.302 1.898 4.2 4.2 4.2v-2zm-2.2-2.2v-6.6h-2v6.6h2zm-1-5.6h22.5v-2h-22.5v2zm23.5-1V12.7h-2v6.25h2zm-1-7.25h-22.5v2h22.5v-2zm-21.5 1V9.45h-2v3.25h2zm0-3.25c0-1.198 1.002-2.2 2.2-2.2v-2c-2.302 0-4.2 1.898-4.2 4.2h2zm64.506-3.2v1h1v-1h-1zm0-6.25h1v-1h-1v1zm0 35v1h1v-1h-1zm0-6.25h1v-1h-1v1zm-17.5-21.5h17.5v-2h-17.5v2zm18.5-1V0h-2v6.25h2zm-1-7.25h-17.5v2h17.5v-2zm-17.5 0c-10.202 0-18.5 8.298-18.5 18.5h2c0-9.098 7.402-16.5 16.5-16.5v-2zm-18.5 18.5c0 10.202 8.298 18.5 18.5 18.5v-2c-9.098 0-16.5-7.402-16.5-16.5h-2zm18.5 18.5h17.5v-2h-17.5v2zm18.5-1v-6.25h-2V35h2zm-1-7.25h-17.5v2h17.5v-2zm-17.5 0c-5.648 0-10.25-4.602-10.25-10.25h-2c0 6.752 5.498 12.25 12.25 12.25v-2zm-10.25-10.25c0-5.648 4.602-10.25 10.25-10.25v-2c-6.752 0-12.25 5.498-12.25 12.25h2zM850.841.05v-1h-1v1h1zm0 6.25h-1v1h1v-1zm14.35 0h1v-1h-1v1zm0 28.75h-1v1h1v-1zm6.25 0v1h1v-1h-1zm0-28.75v-1h-1v1h1zm14.35 0v1h1v-1h-1zm0-6.25h1v-1h-1v1zm-35.95 0V6.3h2V.05h-2zm1 7.25h14.35v-2h-14.35v2zm13.35-1v28.75h2V6.3h-2zm1 29.75h6.25v-2h-6.25v2zm7.25-1V6.3h-2v28.75h2zm-1-27.75h14.35v-2h-14.35v2zm15.35-1V.05h-2V6.3h2zm-1-7.25h-34.95v2h34.95v-2zM897.081 35v1h1v-1h-1zm0-35h1v-1h-1v1zm-6.25 0v-1h-1v1h1zm0 35h-1v1h1v-1zm7.25 0V0h-2v35h2zm-1-36h-6.25v2h6.25v-2zm-7.25 1v35h2V0h-2zm1 36h6.25v-2h-6.25v2zm41.231-21.45l-.837-.548-.544.83.826.55.555-.832zm-30-14.55v-1h-1v1h1zm0 35h-1v1h1v-1zm6.25-28.75v-1h-1v1h1zm0 6.4h-1v1h1v-1zm17.599 16.1v1h1v-1h-1zm-17.599 0h-1v1h1v-1zm0-9.85v-1h-1v1h1zm17.599 9.8v-1h-1v1h1zm6.987-13.602a10.263 10.263 0 001.664-5.648h-2a8.262 8.262 0 01-1.337 4.552l1.673 1.096zm1.664-5.648c0-5.752-4.698-10.45-10.45-10.45v2c4.647 0 8.45 3.802 8.45 8.45h2zM924.112-1h-22.05v2h22.05v-2zm-23.05 1v35h2V0h-2zm1 36h23.849v-2h-23.849v2zm23.849 0c6.703 0 12.151-5.448 12.151-12.15h-2c0 5.598-4.553 10.15-10.151 10.15v2zm12.151-12.15c0-4.253-2.183-7.957-5.446-10.132l-1.109 1.664c2.737 1.825 4.555 4.92 4.555 8.468h2zm-29.75-16.6h15.849v-2h-15.849v2zm15.849 0a2.223 2.223 0 012.201 2.2h2c0-2.302-1.898-4.2-4.201-4.2v2zm2.201 2.2c0 1.198-1.003 2.2-2.201 2.2v2c2.303 0 4.201-1.898 4.201-4.2h-2zm-2.201 2.2h-15.849v2h15.849v-2zm-14.849 1v-6.4h-2v6.4h2zm16.599 15.1h-17.599v2h17.599v-2zm-16.599 1V18.9h-2v9.85h2zm-1-8.85h17.599v-2h-17.599v2zm17.599 0a3.909 3.909 0 013.901 3.9h2c0-3.252-2.648-5.9-5.901-5.9v2zm3.901 3.9c0 2.148-1.753 3.9-3.901 3.9v2a5.908 5.908 0 005.901-5.9h-2zm-4.901 4.9v.05h2v-.05h-2zm26.42.05l-.135.99.066.01h.066l.003-1zm-4.25-4.25h-1v.068l.009.067.991-.135zm0-24.45h1v-1h-1v1zm-6.25 0v-1h-1v1h1zm1.15 28.75l.903-.43-.004-.009-.005-.008-.894.447zm5.05 5.1l-.447.894.447-.894zm22.65 1.15v1h1v-1h-1zm0-6.25h1v-.997l-.997-.003-.003 1zm-18.215-1.04a3.985 3.985 0 01-3.394-3.395l-1.982.27a5.986 5.986 0 005.106 5.106l.27-1.982zm-3.385-3.26V.05h-2V24.5h2zm-1-25.45h-6.25v2h6.25v-2zm-7.25 1V23.9h2V.05h-2zm0 23.85c0 1.906.437 3.709 1.256 5.347l1.788-.894a9.884 9.884 0 01-1.044-4.453h-2zm1.248 5.33c1.149 2.409 3.113 4.368 5.505 5.564l.894-1.788c-2.008-1.004-3.644-2.645-4.594-4.637l-1.805.862zm5.505 5.564a11.87 11.87 0 005.347 1.256v-2a9.874 9.874 0 01-4.453-1.044l-.894 1.788zm5.347 1.256h17.75v-2h-17.75v2zm18.75-1V28.8h-2v6.25h2zm-.997-7.25l-18.35-.05-.006 2 18.35.05.006-2zm39.986-21.55v1h1v-1h-1zm0-6.25h1v-1h-1v1zm0 35v1h1v-1h-1zm0-6.25h1v-1h-1v1zm-28.751-9.8v-1h-1v1h1zm22.501 0v1h1v-1h-1zm0-6.25h1v-1h-1v1zm-22.501 0h-1v1h1v-1zm3.2-5.45h25.551v-2h-25.551v2zm26.551-1V0h-2v6.25h2zm-1-7.25h-25.551v2h25.551v-2zm-25.551 0c-5.759 0-10.4 4.705-10.4 10.45h2c0-4.655 3.759-8.45 8.4-8.45v-2zm-10.4 10.45v16.1h2V9.45h-2zm0 16.1c0 5.745 4.641 10.45 10.4 10.45v-2c-4.641 0-8.4-3.795-8.4-8.45h-2zm10.4 10.45h25.551v-2h-25.551v2zm26.551-1v-6.25h-2V35h2zm-1-7.25h-25.551v2h25.551v-2zm-25.551 0a2.222 2.222 0 01-2.2-2.2h-2c0 2.302 1.898 4.2 4.2 4.2v-2zm-2.2-2.2v-6.6h-2v6.6h2zm-1-5.6h22.501v-2h-22.501v2zm23.501-1V12.7h-2v6.25h2zm-1-7.25h-22.501v2h22.501v-2zm-21.501 1V9.45h-2v3.25h2zm0-3.25c0-1.198 1.002-2.2 2.2-2.2v-2c-2.302 0-4.2 1.898-4.2 4.2h2zm65.841.2l.01 1 .99-.008V9.65h-1zm-31.4 5.35l.84-.537-.01-.018-.01-.018-.82.573zm1.2 1.5l-.71.707.01.005v.006l.7-.718zm3.4 7.45h1v-1h-1v1zm-6.25 0v-1h-1v1h1zm30.55-7l.77-.632-.03-.04-.03-.035-.71.707zm-.4-.45l-.74.673.02.017.01.017.71-.707zm-3.35-6.8h-1v1.008l1.01-.008-.01-1zm7.25-.05v-.2h-2v.2h2zm0-.2c0-5.752-4.7-10.45-10.45-10.45v2c4.65 0 8.45 3.802 8.45 8.45h2zM1038.31-1h-14.2v2h14.2v-2zm-14.2 0c-5.76 0-10.4 4.705-10.4 10.45h2c0-4.655 3.76-8.45 8.4-8.45v-2zm-10.4 10.45v.2h2v-.2h-2zm0 .2c0 2.202.66 4.253 1.83 5.923l1.64-1.146c-.93-1.33-1.47-2.979-1.47-4.777h-2zm1.81 5.887c.38.61.83 1.167 1.33 1.67l1.42-1.414c-.4-.397-.76-.84-1.07-1.33l-1.68 1.074zm1.34 1.68a10.353 10.353 0 007.25 2.933v-2c-2.28 0-4.33-.893-5.85-2.368l-1.4 1.436zm7.25 2.933h12.6v-2h-12.6v2zm12.6 0c2.11 0 3.85 1.716 3.85 3.8h2c0-3.216-2.66-5.8-5.85-5.8v2zm3.85 3.8c0 2.084-1.74 3.8-3.85 3.8v2c3.19 0 5.85-2.584 5.85-5.8h-2zm-3.85 3.8h-10.95v2h10.95v-2zm-10.95 0a3.8 3.8 0 01-3.8-3.8h-2c0 3.202 2.6 5.8 5.8 5.8v-2zm-4.8-4.8h-6.25v2h6.25v-2zm-7.25 1c0 6.652 5.4 12.05 12.05 12.05v-2c-5.55 0-10.05-4.502-10.05-10.05h-2zM1025.76 36h10.95v-2h-10.95v2zm10.95 0c6.65 0 12.05-5.398 12.05-12.05h-2c0 5.548-4.5 10.05-10.05 10.05v2zm12.05-12.05a12.07 12.07 0 00-2.73-7.632l-1.55 1.264c1.42 1.73 2.28 3.96 2.28 6.368h2zm-2.79-7.707c-.04-.038-.08-.08-.14-.158-.06-.072-.15-.18-.26-.292l-1.42 1.414c.04.038.08.08.14.158.06.072.15.18.26.292l1.42-1.414zm-.37-.416a11.983 11.983 0 00-8.89-3.927v2c2.96 0 5.59 1.272 7.41 3.273l1.48-1.346zm-8.89-3.927h-12.6v2h12.6v-2zm-12.6 0a2.22 2.22 0 01-2.2-2.2h-2c0 2.302 1.9 4.2 4.2 4.2v-2zm-2.2-2.2v-.2h-2v.2h2zm0-.2c0-1.198 1-2.2 2.2-2.2v-2c-2.3 0-4.2 1.898-4.2 4.2h2zm2.2-2.2h14.2v-2h-14.2v2zm14.2 0c1.2 0 2.2 1.002 2.2 2.2h2c0-2.302-1.9-4.2-4.2-4.2v2zm2.2 2.2v.2h2v-.2h-2zm1.01 1.2l6.25-.05-.02-2-6.25.05.02 2z" fill="url(#a)"/><defs><linearGradient id="a" x1="-11" y1="-2" x2="1059" y2="-2" gradientUnits="userSpaceOnUse"><stop stop-color="#7F5CFF" stop-opacity="0"/><stop offset=".495" stop-color="#7F5CFF"/><stop offset="1" stop-color="#7F5CFF" stop-opacity="0"/></linearGradient></defs></svg>