<svg width="438" height="23" fill="none" xmlns="http://www.w3.org/2000/svg"><path d="M44.77-13l.958.286.384-1.286H44.77v1zm-6.5 0v-1h-.745l-.213.714.958.286zm-6.3 21.1l-.811.585 1.188 1.648.581-1.947-.958-.286zM26.67.75l-.814.581.003.004.811-.585zm-1-1.4l.814-.581-.007-.009-.807.59zm-2.85-3.9l.808-.59-.808-1.105-.807 1.105.807.59zm-2.85 3.9l-.807-.59-.007.009.814.581zm-1 1.4l.811.585.003-.004L18.97.75zm-5.3 7.35l-.958.286.581 1.947 1.188-1.648-.81-.585zM7.37-13l.958-.286L8.115-14H7.37v1zm-6.5 0v-1H-.47l.381 1.285.96-.285zm8.15 27.45l-.959.285.001.002.958-.287zm2.25 7.5l-.958.287.582 1.938 1.186-1.638-.81-.587zm4.6-6.35l.81.587v-.001l-.81-.586zm6.9-9.55l.809-.588-.812-1.115-.807 1.117.81.586zm6.95 9.55l.812-.584-.003-.004-.809.588zm4.6 6.4l-.812.584 1.189 1.654.581-1.952L34.32 22zm2.25-7.55l-.958-.286.958.286zM44.77-14h-6.5v2h6.5v-2zm-7.458.714l-6.3 21.1 1.916.572 6.3-21.1-1.916-.572zm-4.53 20.801l-5.3-7.35-1.623 1.17 5.3 7.35 1.622-1.17zM27.483.17l-1-1.4-1.627 1.16 1 1.4L27.484.17zm-1.006-1.41l-2.85-3.9-1.614 1.18 2.85 3.9 1.614-1.18zm-4.464-3.9l-2.85 3.9 1.614 1.18 2.85-3.9-1.614-1.18zm-2.857 3.909l-1 1.4 1.628 1.162 1-1.4-1.628-1.162zM18.16.165l-5.3 7.35 1.622 1.17 5.3-7.35L18.16.165zm-3.53 7.649l-6.3-21.1-1.917.572 6.3 21.1 1.916-.572zM7.37-14H.87v2h6.5v-2zm-7.459 1.285l8.15 27.45 1.918-.57-8.15-27.45-1.918.57zm8.151 27.452l2.25 7.5 1.916-.574-2.25-7.5-1.916.574zm4.018 7.8l4.6-6.35-1.62-1.174-4.6 6.35 1.62 1.174zm4.6-6.351l6.9-9.55-1.62-1.172-6.9 9.55 1.62 1.172zm5.282-9.548l6.95 9.55 1.617-1.176-6.95-9.55-1.617 1.176zm6.946 9.546l4.6 6.4 1.624-1.168-4.6-6.4-1.624 1.168zm6.37 6.102l2.25-7.55-1.916-.572-2.25 7.55 1.916.572zm2.25-7.55l8.2-27.45-1.916-.572-8.2 27.45 1.916.572zM78.498-13v-1h-1v1h1zm0 12.7v1h1v-1h-1zm-22.5 0h-1v1h1v-1zm0-12.7h1v-1h-1v1zm-6.25 0v-1h-1v1h1zm0 35h-1v1h1v-1zm6.25 0v1h1v-1h-1zm0-16.05v-1h-1v1h1zm22.5 0h1v-1h-1v1zm0 16.05h-1v1h1v-1zm6.25 0v1h1v-1h-1zm0-35h1v-1h-1v1zm-7.25 0V-.3h2V-13h-2zm1 11.7h-22.5v2h22.5v-2zm-21.5 1V-13h-2V-.3h2zm-1-13.7h-6.25v2h6.25v-2zm-7.25 1v35h2v-35h-2zm1 36h6.25v-2h-6.25v2zm7.25-1V5.95h-2V22h2zm-1-15.05h22.5v-2h-22.5v2zm21.5-1V22h2V5.95h-2zm1 17.05h6.25v-2h-6.25v2zm7.25-1v-35h-2v35h2zm-1-36h-6.25v2h6.25v-2zm35.489 29.75l-.891.454.001.002.89-.456zM105.587-13l.891-.454-.891-1.749-.891 1.749.891.454zm-14.65 28.75l.89.456.001-.002-.89-.454zm-3.2 6.25l-.89-.456L86.102 23h1.635v-1zm7 0v1h.612l.278-.544-.89-.456zm3.2-6.25l.89.456.001-.002-.89-.454zm7.65-15l.891-.454-.891-1.747-.891 1.747.891.454zm7.65 15l-.891.454.001.002.89-.456zm3.2 6.25l-.89.456.279.544h.611v-1zm7 0v1h1.636l-.746-1.456-.89.456zm-2.309-6.704l-14.65-28.75-1.782.908 14.65 28.75 1.782-.908zm-16.432-28.75l-14.65 28.75 1.782.908 14.65-28.75-1.782-.908zM90.047 15.294l-3.2 6.25 1.78.912 3.2-6.25-1.78-.912zM87.737 23h7v-2h-7v2zm7.89-.544l3.2-6.25-1.78-.912-3.2 6.25 1.78.912zm3.201-6.252l7.65-15-1.782-.908-7.65 15 1.782.908zm5.868-15l7.65 15 1.782-.908-7.65-15-1.782.908zm7.651 15.002l3.2 6.25 1.78-.912-3.2-6.25-1.78.912zm4.09 6.794h7v-2h-7v2zm7.89-1.456l-3.2-6.25-1.78.912 3.2 6.25 1.78-.912zm-7.783-34.494v-1h-1v1h1zm0 6.25h-1v1h1v-1zm14.35 0h1v-1h-1v1zm0 28.75h-1v1h1v-1zm6.25 0v1h1v-1h-1zm0-28.75v-1h-1v1h1zm14.35 0v1h1v-1h-1zm0-6.25h1v-1h-1v1zm-35.95 0v6.25h2v-6.25h-2zm1 7.25h14.35v-2h-14.35v2zm13.35-1v28.75h2V-6.7h-2zm1 29.75h6.25v-2h-6.25v2zm7.25-1V-6.7h-2v28.75h2zm-1-27.75h14.35v-2h-14.35v2zm15.35-1v-6.25h-2v6.25h2zm-1-7.25h-34.95v2h34.95v-2zm29.405 1v-1h-1v1h1zm0 6.25h-1v1h1v-1zm14.35 0h1v-1h-1v1zm0 28.75h-1v1h1v-1zm6.25 0v1h1v-1h-1zm0-28.75v-1h-1v1h1zm14.35 0v1h1v-1h-1zm0-6.25h1v-1h-1v1zm-35.95 0v6.25h2v-6.25h-2zm1 7.25h14.35v-2h-14.35v2zm13.35-1v28.75h2V-6.7h-2zm1 29.75h6.25v-2h-6.25v2zm7.25-1V-6.7h-2v28.75h2zm-1-27.75h14.35v-2h-14.35v2zm15.35-1v-6.25h-2v6.25h2zm-1-7.25h-34.95v2h34.95v-2zm18.02-.05c-10.202 0-18.5 8.298-18.5 18.5h2c0-9.098 7.403-16.5 16.5-16.5v-2zm-18.5 18.5c0 10.202 8.298 18.5 18.5 18.5v-2c-9.097 0-16.5-7.402-16.5-16.5h-2zm18.5 18.5c10.203 0 18.5-8.298 18.5-18.5h-2c0 9.098-7.402 16.5-16.5 16.5v2zm18.5-18.5c0-10.202-8.297-18.5-18.5-18.5v2c9.098 0 16.5 7.402 16.5 16.5h2zm-18.5 10.25c-5.647 0-10.25-4.602-10.25-10.25h-2c0 6.752 5.498 12.25 12.25 12.25v-2zM223.619 4.5c0-5.648 4.603-10.25 10.25-10.25v-2c-6.752 0-12.25 5.498-12.25 12.25h2zm10.25-10.25c5.648 0 10.25 4.602 10.25 10.25h2c0-6.752-5.497-12.25-12.25-12.25v2zm10.25 10.25c0 5.648-4.602 10.25-10.25 10.25v2c6.753 0 12.25-5.498 12.25-12.25h-2zM314.532-13l.677.737L317.1-14h-2.568v1zm-9.25 0v-1h-.389l-.287.263.676.737zm-9.75 8.95l.675.738.001-.001-.676-.737zM290.882.2l.674.739h.001L290.882.2zm-5.15 4.7h-1v2.266l1.674-1.527-.674-.739zm0-17.9h1v-1h-1v1zm-6.25 0v-1h-1v1h1zm0 35h-1v1h1v-1zm6.25 0v1h1v-1h-1zm0-8.65l-.673-.74-.327.298v.442h1zm8.85-8.05l.81-.587-.656-.905-.827.752.673.74zm12.1 16.7l-.81.587.3.413h.51v-1zm7.7 0v1h1.957l-1.146-1.586-.811.586zm-15.15-20.95l-.676-.737-.655.602.521.721.81-.586zm15.3-15.05h-9.25v2h9.25v-2zm-9.926.263l-9.75 8.95 1.352 1.474 9.75-8.95-1.352-1.474zm-9.748 8.949l-4.65 4.25 1.349 1.476 4.65-4.25-1.349-1.476zm-4.65 4.25l-5.15 4.7 1.348 1.477 5.15-4.7-1.348-1.478zM286.732 4.9V-13h-2V4.9h2zm-1-18.9h-6.25v2h6.25v-2zm-7.25 1v35h2v-35h-2zm1 36h6.25v-2h-6.25v2zm7.25-1v-8.65h-2V22h2zm-.327-7.91l8.85-8.05-1.346-1.48-8.85 8.05 1.346 1.48zm7.367-8.203l12.1 16.7 1.62-1.174-12.1-16.7-1.62 1.174zM306.682 23h7.7v-2h-7.7v2zm8.511-1.586L300.043.464l-1.621 1.172 15.15 20.95 1.621-1.172zM299.909 1.787l15.3-14.05-1.353-1.474-15.3 14.05 1.353 1.474zM348.272-13l.008-1-1.008-.008V-13h1zm0 22.3l-.61.792 1.61 1.242V9.3h-1zm-22.5-17.35l.611-.792-.001-.001-.61.793zm-6.25-4.8l.61-.793-1.61-1.236v2.029h1zm0 34.9h-1v1h1v-1zm6.25 0v1h1v-1h-1zm0-22.15l.611-.792-1.611-1.242V-.1h1zm22.5 17.35l-.61.792.001.001.609-.793zm6.25 4.8l-.609.793 1.609 1.236V22.05h-1zm0-35h1v-.992l-.992-.008-.008 1zm-7.25-.05V9.3h2V-13h-2zm1.611 21.508l-22.5-17.35-1.221 1.584 22.5 17.35 1.221-1.584zM326.382-8.843l-6.25-4.8-1.219 1.586 6.25 4.8 1.219-1.586zm-7.86-4.007v34.9h2v-34.9h-2zm1 35.9h6.25v-2h-6.25v2zm7.25-1V-.1h-2v22.15h2zM325.162.692l22.5 17.35 1.221-1.584-22.5-17.35-1.221 1.584zm22.501 17.351l6.25 4.8 1.219-1.586-6.25-4.8-1.219 1.586zm7.859 4.007v-35h-2v35h2zm-.992-36l-6.25-.05-.016 2 6.25.05.016-2zm21.283-.05c-10.203 0-18.5 8.298-18.5 18.5h2c0-9.098 7.402-16.5 16.5-16.5v-2zm-18.5 18.5c0 10.202 8.297 18.5 18.5 18.5v-2c-9.098 0-16.5-7.402-16.5-16.5h-2zm18.5 18.5c10.202 0 18.5-8.298 18.5-18.5h-2c0 9.098-7.403 16.5-16.5 16.5v2zm18.5-18.5c0-10.202-8.298-18.5-18.5-18.5v2c9.097 0 16.5 7.402 16.5 16.5h2zm-18.5 10.25c-5.648 0-10.25-4.602-10.25-10.25h-2c0 6.752 5.497 12.25 12.25 12.25v-2zM365.563 4.5c0-5.648 4.602-10.25 10.25-10.25v-2c-6.753 0-12.25 5.498-12.25 12.25h2zm10.25-10.25c5.647 0 10.25 4.602 10.25 10.25h2c0-6.752-5.498-12.25-12.25-12.25v2zm10.25 10.25c0 5.648-4.603 10.25-10.25 10.25v2c6.752 0 12.25-5.498 12.25-12.25h-2zm51.09-17.5l.958.286.384-1.286h-1.342v1zm-6.5 0v-1h-.745l-.213.714.958.286zm-6.3 21.1l-.811.585 1.188 1.648.581-1.947-.958-.286zm-5.3-7.35l-.814.581.003.004.811-.585zm-1-1.4l.814-.581-.007-.009-.807.59zm-2.85-3.9l.807-.59-.807-1.105-.807 1.105.807.59zm-2.85 3.9l-.808-.59-.006.009.814.581zm-1 1.4l.811.585.003-.004-.814-.581zm-5.3 7.35l-.958.286.581 1.947 1.188-1.648-.811-.585zm-6.3-21.1l.958-.286-.213-.714h-.745v1zm-6.5 0v-1h-1.34l.381 1.285.959-.285zm8.15 27.45l-.959.285.001.002.958-.287zm2.25 7.5l-.958.287.581 1.938 1.187-1.638-.81-.587zm4.6-6.35l.81.587v-.001l-.81-.586zm6.9-9.55l.808-.588-.811-1.115-.808 1.117.811.586zm6.95 9.55l.812-.584-.004-.004-.808.588zm4.6 6.4l-.812.584 1.189 1.654.581-1.952-.958-.286zm2.25-7.55l-.958-.286.958.286zm8.2-28.45h-6.5v2h6.5v-2zm-7.458.714l-6.3 21.1 1.916.572 6.3-21.1-1.916-.572zm-4.531 20.801l-5.3-7.35-1.622 1.17 5.3 7.35 1.622-1.17zM419.867.17l-1-1.4-1.628 1.162 1 1.4L419.867.17zm-1.007-1.41l-2.85-3.9-1.614 1.18 2.85 3.9 1.614-1.18zm-4.464-3.9l-2.85 3.9 1.614 1.18 2.85-3.9-1.614-1.18zm-2.857 3.909l-1 1.4 1.628 1.162 1-1.4-1.628-1.162zm-.997 1.396l-5.3 7.35 1.622 1.17 5.3-7.35-1.622-1.17zm-3.531 7.649l-6.3-21.1-1.916.572 6.3 21.1 1.916-.572zM399.753-14h-6.5v2h6.5v-2zm-7.459 1.285l8.15 27.45 1.918-.57-8.15-27.45-1.918.57zm8.151 27.452l2.25 7.5 1.916-.574-2.25-7.5-1.916.574zm4.018 7.8l4.6-6.35-1.62-1.174-4.6 6.35 1.62 1.174zm4.6-6.351l6.901-9.55-1.622-1.172-6.9 9.55 1.621 1.172zm5.281-9.548l6.95 9.55 1.617-1.176-6.95-9.55-1.617 1.176zm6.947 9.546l4.6 6.4 1.624-1.168-4.6-6.4-1.624 1.168zm6.37 6.102l2.25-7.55-1.916-.572-2.25 7.55 1.916.572zm2.25-7.55l8.2-27.45-1.916-.572-8.2 27.45 1.916.572z" fill="url(#a)"/><defs><linearGradient id="a" x1="-316" y1="-15" x2="754" y2="-15" gradientUnits="userSpaceOnUse"><stop stop-color="#7F5CFF" stop-opacity="0"/><stop offset=".495" stop-color="#7F5CFF"/><stop offset="1" stop-color="#7F5CFF" stop-opacity="0"/></linearGradient></defs></svg>